<svg xmlns="http://www.w3.org/2000/svg" xmlns:xlink="http://www.w3.org/1999/xlink" width="175px" height="175px" viewBox="0 0 175 175"><title>Logo/Stacked</title><g id="Logo/Stacked" stroke="none" stroke-width="1" fill="none" fill-rule="evenodd"><g id="LM-Stacked-Blue-RGB" transform="translate(0, -0)"><polygon id="Fill-1" fill="#00ABE6" points="0 174.94 174.96 174.94 174.96 0 0 0"></polygon><path d="M24.179,86.946 L29.801,86.946 L29.801,109.793 L38.892,109.793 L38.892,114.856 L24.179,114.856 L24.179,86.946 M51.851,110.511 C55.161,110.511 57.593,108.038 57.593,104.49 C57.593,100.941 55.161,98.35 51.851,98.35 C48.542,98.35 46.15,100.901 46.15,104.49 C46.15,108.038 48.582,110.511 51.851,110.511 Z M51.851,93.485 C58.231,93.485 63.095,98.19 63.095,104.49 C63.095,110.79 58.39,115.375 51.851,115.375 C45.352,115.375 40.648,110.79 40.648,104.49 C40.648,98.15 45.512,93.485 51.851,93.485 L51.851,93.485 Z M74.183,111.108 C76.256,111.108 77.771,109.992 77.771,108.238 C77.771,106.403 76.256,105.327 74.143,105.327 C72.03,105.327 70.554,106.523 70.554,108.238 C70.554,109.952 72.109,111.108 74.183,111.108 Z M73.146,101.5 C75.259,101.5 76.894,102.138 77.652,102.656 L77.652,101.3 C77.652,99.466 76.295,98.231 73.864,98.231 C71.79,98.231 69.877,98.908 68.322,99.705 L66.248,95.957 C68.123,94.682 71.272,93.485 74.461,93.485 C81.16,93.485 83.154,96.994 83.154,101.659 L83.154,114.856 L78.29,114.856 L77.93,113.501 C76.854,114.657 75.259,115.375 72.867,115.375 C68.64,115.375 65.052,112.783 65.052,108.397 C65.052,104.291 68.282,101.5 73.146,101.5 L73.146,101.5 Z M105.403,102.815 L105.403,114.856 L99.901,114.856 L99.901,102.178 C99.901,99.865 98.307,98.43 96.433,98.43 C94.16,98.43 92.725,100.104 92.725,102.337 L92.725,114.856 L87.222,114.856 L87.222,94.004 L92.605,94.004 L92.605,96.436 C93.482,95.001 95.476,93.485 98.187,93.485 C104.128,93.485 105.403,98.39 105.403,102.815 M39.371,140.524 L47.384,121.506 L54.641,121.506 L54.641,149.416 L49.258,149.416 L49.258,129.48 L42.002,147.063 L36.779,147.063 L29.522,129.48 L29.522,149.416 L24.14,149.416 L24.14,121.506 L31.396,121.506 L39.371,140.524 M67.365,145.668 C69.438,145.668 70.953,144.552 70.953,142.798 C70.953,140.963 69.438,139.887 67.325,139.887 C65.211,139.887 63.736,141.083 63.736,142.798 C63.736,144.512 65.29,145.668 67.365,145.668 Z M66.328,136.06 C68.441,136.06 70.076,136.697 70.834,137.216 L70.834,135.859 C70.834,134.025 69.477,132.79 67.045,132.79 C64.972,132.79 63.058,133.468 61.503,134.265 L59.43,130.517 C61.304,129.241 64.454,128.045 67.643,128.045 C74.341,128.045 76.335,131.554 76.335,136.219 L76.335,149.416 L71.471,149.416 L71.112,148.061 C70.036,149.217 68.441,149.935 66.048,149.935 C61.822,149.935 58.234,147.343 58.234,142.957 C58.234,138.851 61.463,136.06 66.328,136.06 L66.328,136.06 Z M91.528,133.627 C87.42,133.627 85.906,136.179 85.906,140.325 L85.906,149.416 L80.404,149.416 L80.404,128.563 L85.787,128.563 L85.787,131.594 C86.704,129.521 88.777,128.045 91.528,128.045 L91.528,133.627 M94.759,120.589 L100.261,120.589 L100.261,137.335 L106.959,128.563 L113.139,128.563 L105.803,138.013 L113.697,149.416 L107.238,149.416 L100.261,138.65 L100.261,149.416 L94.759,149.416 L94.759,120.589 M128.812,136.776 C128.691,134.225 126.857,132.551 124.346,132.551 C121.754,132.551 120.08,134.385 119.841,136.776 L128.812,136.776 Z M124.267,128.045 C130.726,128.045 134.394,132.352 134.394,139.169 C134.394,139.567 134.394,139.967 134.354,140.365 L119.681,140.365 C119.801,143.156 122.033,145.149 125.104,145.149 C127.935,145.149 129.569,143.476 130.167,142.598 L133.795,145.35 C132.998,146.824 130.207,149.935 125.023,149.935 C118.325,149.935 114.06,145.31 114.06,139.05 C114.06,132.75 118.325,128.045 124.267,128.045 L124.267,128.045 Z M137.983,124.178 L143.406,124.178 L143.406,128.563 L147.313,128.563 L147.313,133.029 L143.406,133.029 L143.406,141.083 C143.406,144.193 144.363,144.831 146.477,144.831 C146.835,144.831 147.034,144.831 147.474,144.791 L147.474,149.496 C147.474,149.496 146.636,149.695 145.121,149.695 C140.137,149.695 137.944,146.904 137.944,141.242 L137.944,133.029 L135.751,133.029 L135.751,128.563 L137.983,128.563 L137.983,124.178 M149.017,124.545 L148.364,124.545 L148.364,124.04 L150.228,124.04 L150.228,124.545 L149.579,124.545 L149.579,126.827 L149.017,126.827 L149.017,124.545 M152.097,125.939 L152.897,124.04 L153.622,124.04 L153.622,126.827 L153.085,126.827 L153.085,124.836 L152.36,126.593 L151.839,126.593 L151.113,124.836 L151.113,126.827 L150.575,126.827 L150.575,124.04 L151.301,124.04 L152.097,125.939" id="Combined-Shape" fill="#FFFFFE"></path></g></g></svg>