<svg width="80" height="80" viewBox="0 0 80 80" fill="none" xmlns="http://www.w3.org/2000/svg">
<path fill-rule="evenodd" clip-rule="evenodd" d="M69.9123 55.9289C60.2768 72.1084 37.8359 76.5119 19.7892 65.7644C1.74249 55.0169 -6.21758 23.468 20.847 23.1818C47.9115 22.8957 40.028 8.54616 56.3187 8.17224C72.6095 7.79833 79.5478 39.7493 69.9123 55.9289Z" fill="#F7F7F7"/>
<path fill-rule="evenodd" clip-rule="evenodd" d="M66.4667 17.913L49.4809 52.5377L31.7051 24.6043L15.0312 40.9474L13.7188 39.6083L32.0449 21.6458L49.2691 48.7124L64.7833 17.0872L66.4667 17.913Z" fill="black"/>
<path d="M61.875 17.5C61.875 19.5711 63.5539 21.25 65.625 21.25C67.6961 21.25 69.375 19.5711 69.375 17.5C69.375 15.4289 67.6961 13.75 65.625 13.75C63.5539 13.75 61.875 15.4289 61.875 17.5Z" fill="white"/>
<path fill-rule="evenodd" clip-rule="evenodd" d="M65.625 14.6875C67.1783 14.6875 68.4375 15.9467 68.4375 17.5C68.4375 19.0533 67.1783 20.3125 65.625 20.3125C64.0717 20.3125 62.8125 19.0533 62.8125 17.5C62.8125 15.9467 64.0717 14.6875 65.625 14.6875ZM70.3125 17.5C70.3125 14.9112 68.2138 12.8125 65.625 12.8125C63.0362 12.8125 60.9375 14.9112 60.9375 17.5C60.9375 20.0888 63.0362 22.1875 65.625 22.1875C68.2138 22.1875 70.3125 20.0888 70.3125 17.5Z" fill="black"/>
<path d="M44.375 51.25C44.375 54.0114 46.6136 56.25 49.375 56.25C52.1364 56.25 54.375 54.0114 54.375 51.25C54.375 48.4886 52.1364 46.25 49.375 46.25C46.6136 46.25 44.375 48.4886 44.375 51.25Z" fill="white"/>
<path fill-rule="evenodd" clip-rule="evenodd" d="M49.375 47.5C51.4461 47.5 53.125 49.1789 53.125 51.25C53.125 53.3211 51.4461 55 49.375 55C47.3039 55 45.625 53.3211 45.625 51.25C45.625 49.1789 47.3039 47.5 49.375 47.5ZM55.625 51.25C55.625 47.7982 52.8268 45 49.375 45C45.9232 45 43.125 47.7982 43.125 51.25C43.125 54.7018 45.9232 57.5 49.375 57.5C52.8268 57.5 55.625 54.7018 55.625 51.25Z" fill="black"/>
<path d="M28.125 22.5C28.125 24.5711 29.8039 26.25 31.875 26.25C33.9461 26.25 35.625 24.5711 35.625 22.5C35.625 20.4289 33.9461 18.75 31.875 18.75C29.8039 18.75 28.125 20.4289 28.125 22.5Z" fill="white"/>
<path fill-rule="evenodd" clip-rule="evenodd" d="M31.875 19.6875C33.4283 19.6875 34.6875 20.9467 34.6875 22.5C34.6875 24.0533 33.4283 25.3125 31.875 25.3125C30.3217 25.3125 29.0625 24.0533 29.0625 22.5C29.0625 20.9467 30.3217 19.6875 31.875 19.6875ZM36.5625 22.5C36.5625 19.9112 34.4638 17.8125 31.875 17.8125C29.2862 17.8125 27.1875 19.9112 27.1875 22.5C27.1875 25.0888 29.2862 27.1875 31.875 27.1875C34.4638 27.1875 36.5625 25.0888 36.5625 22.5Z" fill="black"/>
<path d="M11.875 38.75C11.875 40.8211 13.5539 42.5 15.625 42.5C17.6961 42.5 19.375 40.8211 19.375 38.75C19.375 36.6789 17.6961 35 15.625 35C13.5539 35 11.875 36.6789 11.875 38.75Z" fill="white"/>
<path fill-rule="evenodd" clip-rule="evenodd" d="M15.625 35.9375C17.1783 35.9375 18.4375 37.1967 18.4375 38.75C18.4375 40.3033 17.1783 41.5625 15.625 41.5625C14.0717 41.5625 12.8125 40.3033 12.8125 38.75C12.8125 37.1967 14.0717 35.9375 15.625 35.9375ZM20.3125 38.75C20.3125 36.1612 18.2138 34.0625 15.625 34.0625C13.0362 34.0625 10.9375 36.1612 10.9375 38.75C10.9375 41.3388 13.0362 43.4375 15.625 43.4375C18.2138 43.4375 20.3125 41.3388 20.3125 38.75Z" fill="black"/>
<path d="M64.7917 51.25C64.7917 59.5343 58.076 66.25 49.7917 66.25C41.5075 66.25 34.7917 59.5343 34.7917 51.25C34.7917 42.9657 41.5075 36.25 49.7917 36.25C58.076 36.25 64.7917 42.9657 64.7917 51.25Z" fill="#E6F6FF"/>
<path fill-rule="evenodd" clip-rule="evenodd" d="M49.7917 64.375C57.0405 64.375 62.9167 58.4987 62.9167 51.25C62.9167 44.0013 57.0405 38.125 49.7917 38.125C42.543 38.125 36.6667 44.0013 36.6667 51.25C36.6667 58.4987 42.543 64.375 49.7917 64.375ZM49.7917 66.25C58.076 66.25 64.7917 59.5343 64.7917 51.25C64.7917 42.9657 58.076 36.25 49.7917 36.25C41.5075 36.25 34.7917 42.9657 34.7917 51.25C34.7917 59.5343 41.5075 66.25 49.7917 66.25Z" fill="#0C6CCE"/>
<path d="M46.1763 57.8961C45.4913 57.8961 45.0713 57.1452 45.4299 56.5615L52.5426 44.982C52.702 44.7226 52.9846 44.5645 53.2891 44.5645C53.9742 44.5645 54.3942 45.3154 54.0356 45.8991L46.9228 57.4786C46.7635 57.738 46.4808 57.8961 46.1763 57.8961ZM53.701 58.0485C52.8232 58.0485 52.1257 57.7184 51.6086 57.0581C51.1036 56.3979 50.8511 55.452 50.8511 54.2204C50.8511 52.9761 51.1036 52.0302 51.6086 51.3827C52.1257 50.7351 52.8232 50.4113 53.701 50.4113C54.5788 50.4113 55.2703 50.7351 55.7753 51.3827C56.2924 52.0302 56.5509 52.9761 56.5509 54.2204C56.5509 55.452 56.2924 56.3979 55.7753 57.0581C55.2703 57.7184 54.5788 58.0485 53.701 58.0485ZM53.701 56.4106C54.0497 56.4106 54.3203 56.2392 54.5127 55.8964C54.7051 55.5536 54.8013 54.9949 54.8013 54.2204C54.8013 53.4459 54.7051 52.8936 54.5127 52.5635C54.3203 52.2206 54.0497 52.0492 53.701 52.0492C53.3523 52.0492 53.0817 52.2206 52.8893 52.5635C52.6969 52.8936 52.6007 53.4459 52.6007 54.2204C52.6007 54.9949 52.6969 55.5536 52.8893 55.8964C53.0817 56.2392 53.3523 56.4106 53.701 56.4106ZM45.7645 52.0492C44.8867 52.0492 44.1892 51.7191 43.6721 51.0589C43.1671 50.3987 42.9146 49.4527 42.9146 48.2211C42.9146 46.9769 43.1671 46.031 43.6721 45.3834C44.1892 44.7359 44.8867 44.4121 45.7645 44.4121C46.6423 44.4121 47.3337 44.7359 47.8388 45.3834C48.3559 46.031 48.6144 46.9769 48.6144 48.2211C48.6144 49.4527 48.3559 50.3987 47.8388 51.0589C47.3337 51.7191 46.6423 52.0492 45.7645 52.0492ZM45.7645 50.4113C46.1132 50.4113 46.3838 50.2399 46.5762 49.8971C46.7686 49.5543 46.8648 48.9957 46.8648 48.2211C46.8648 47.4466 46.7686 46.8943 46.5762 46.5642C46.3838 46.2214 46.1132 46.05 45.7645 46.05C45.4158 46.05 45.1452 46.2214 44.9528 46.5642C44.7604 46.8943 44.6642 47.4466 44.6642 48.2211C44.6642 48.9957 44.7604 49.5543 44.9528 49.8971C45.1452 50.2399 45.4158 50.4113 45.7645 50.4113Z" fill="#0C6CCE"/>
</svg>
