<svg width="80" height="80" viewBox="0 0 80 80" fill="none" xmlns="http://www.w3.org/2000/svg">
<path fill-rule="evenodd" clip-rule="evenodd" d="M11.1777 56.9913C21.8821 74.3782 44.6044 79.8264 61.9294 69.1601C79.2544 58.4938 85.1173 25.557 58.0467 24.2778C30.9762 22.9987 37.9038 8.17187 21.5961 7.18952C5.28837 6.20716 0.473297 39.6044 11.1777 56.9913Z" fill="#F7F7F7"/>
<path d="M41.593 63.8791C48.931 63.8791 54.8797 57.9304 54.8797 50.5924C54.8797 43.2543 48.931 37.3057 41.593 37.3057C34.2549 37.3057 28.3063 43.2543 28.3063 50.5924C28.3063 57.9304 34.2549 63.8791 41.593 63.8791Z" fill="#E6F6FF"/>
<path fill-rule="evenodd" clip-rule="evenodd" d="M41.593 38.3313C34.8214 38.3313 29.3319 43.8208 29.3319 50.5924C29.3319 57.364 34.8214 62.8535 41.593 62.8535C48.3646 62.8535 53.8541 57.364 53.8541 50.5924C53.8541 43.8208 48.3646 38.3313 41.593 38.3313ZM27.2806 50.5924C27.2806 42.6879 33.6885 36.28 41.593 36.28C49.4975 36.28 55.9054 42.6879 55.9054 50.5924C55.9054 58.4969 49.4975 64.9047 41.593 64.9047C33.6885 64.9047 27.2806 58.4969 27.2806 50.5924Z" fill="#0C6CCE"/>
<path d="M39.3525 55.5226C38.8185 55.5226 38.4911 54.9373 38.7706 54.4823L44.3149 45.4562C44.4391 45.254 44.6594 45.1307 44.8968 45.1307V45.1307C45.4308 45.1307 45.7581 45.716 45.4787 46.171L39.9343 55.1971C39.8101 55.3993 39.5898 55.5226 39.3525 55.5226V55.5226ZM45.2178 55.6413C44.5336 55.6413 43.9899 55.384 43.5869 54.8694C43.1932 54.3547 42.9963 53.6174 42.9963 52.6574C42.9963 51.6875 43.1932 50.9502 43.5869 50.4454C43.9899 49.9407 44.5336 49.6883 45.2178 49.6883C45.9021 49.6883 46.441 49.9407 46.8347 50.4454C47.2378 50.9502 47.4393 51.6875 47.4393 52.6574C47.4393 53.6174 47.2378 54.3547 46.8347 54.8694C46.441 55.384 45.9021 55.6413 45.2178 55.6413ZM45.2178 54.3646C45.4897 54.3646 45.7006 54.231 45.8505 53.9638C46.0005 53.6966 46.0755 53.2611 46.0755 52.6574C46.0755 52.0537 46.0005 51.6232 45.8505 51.3658C45.7006 51.0986 45.4897 50.965 45.2178 50.965C44.946 50.965 44.7351 51.0986 44.5851 51.3658C44.4352 51.6232 44.3602 52.0537 44.3602 52.6574C44.3602 53.2611 44.4352 53.6966 44.5851 53.9638C44.7351 54.231 44.946 54.3646 45.2178 54.3646ZM39.0314 50.965C38.3472 50.965 37.8035 50.7077 37.4005 50.193C37.0068 49.6784 36.8099 48.9411 36.8099 47.9811C36.8099 47.0112 37.0068 46.2738 37.4005 45.7691C37.8035 45.2643 38.3472 45.012 39.0314 45.012C39.7157 45.012 40.2546 45.2643 40.6483 45.7691C41.0514 46.2738 41.2529 47.0112 41.2529 47.9811C41.2529 48.9411 41.0514 49.6784 40.6483 50.193C40.2546 50.7077 39.7157 50.965 39.0314 50.965ZM39.0314 49.6883C39.3032 49.6883 39.5141 49.5547 39.6641 49.2875C39.8141 49.0202 39.8891 48.5848 39.8891 47.9811C39.8891 47.3773 39.8141 46.9468 39.6641 46.6895C39.5141 46.4223 39.3032 46.2887 39.0314 46.2887C38.7596 46.2887 38.5487 46.4223 38.3987 46.6895C38.2487 46.9468 38.1738 47.3773 38.1738 47.9811C38.1738 48.5848 38.2487 49.0202 38.3987 49.2875C38.5487 49.5547 38.7596 49.6883 39.0314 49.6883Z" fill="#0C6CCE"/>
<path fill-rule="evenodd" clip-rule="evenodd" d="M15.5895 33.9673C15.5895 31.1351 17.8855 28.8391 20.7177 28.8391H61.4077C64.2399 28.8391 66.5359 31.1351 66.5359 33.9673V66.1538C66.5359 68.986 64.2399 71.282 61.4077 71.282H20.7177C17.8855 71.282 15.5895 68.986 15.5895 66.1538V33.9673ZM20.7177 30.8904C19.0183 30.8904 17.6408 32.268 17.6408 33.9673V66.1538C17.6408 67.8531 19.0183 69.2307 20.7177 69.2307H61.4077C63.107 69.2307 64.4846 67.8531 64.4846 66.1538V33.9673C64.4846 32.268 63.107 30.8904 61.4077 30.8904H20.7177Z" fill="black"/>
<path fill-rule="evenodd" clip-rule="evenodd" d="M32.2617 12.8206C28.2965 12.8206 25.0822 16.0349 25.0822 20.0001V29.8649H23.0309V20.0001C23.0309 14.902 27.1636 10.7693 32.2617 10.7693H49.8654C54.9634 10.7693 59.0961 14.902 59.0961 20.0001V29.8649H57.0449V20.0001C57.0449 16.0349 53.8305 12.8206 49.8654 12.8206H32.2617Z" fill="black"/>
</svg>
