<svg width="48" height="48" viewBox="0 0 48 48" fill="none" xmlns="http://www.w3.org/2000/svg">
<path d="M34 40C37.3137 40 40 37.3137 40 34C40 30.6863 37.3137 28 34 28C30.6863 28 28 30.6863 28 34C28 37.3137 30.6863 40 34 40Z" stroke="white" stroke-width="1.5" stroke-miterlimit="10" stroke-linecap="round" stroke-linejoin="round"/>
<path d="M16 21C19.3137 21 22 18.3137 22 15C22 11.6863 19.3137 9 16 9C12.6863 9 10 11.6863 10 15C10 18.3137 12.6863 21 16 21Z" stroke="white" stroke-width="1.5" stroke-miterlimit="10" stroke-linecap="round" stroke-linejoin="round"/>
<path d="M37.5303 12.5303C37.8232 12.2374 37.8232 11.7626 37.5303 11.4697C37.2374 11.1768 36.7626 11.1768 36.4697 11.4697L37.5303 12.5303ZM10.25 38C10.25 38.4142 10.5858 38.75 11 38.75H17.75C18.1642 38.75 18.5 38.4142 18.5 38C18.5 37.5858 18.1642 37.25 17.75 37.25H11.75V31.25C11.75 30.8358 11.4142 30.5 11 30.5C10.5858 30.5 10.25 30.8358 10.25 31.25V38ZM36.4697 11.4697L10.4697 37.4697L11.5303 38.5303L37.5303 12.5303L36.4697 11.4697Z" fill="white"/>
<rect opacity="0.01" x="4" y="4" width="40" height="40" fill="white"/>
</svg>
