<svg xmlns="http://www.w3.org/2000/svg" width="213" height="213"><g fill="none" fill-rule="evenodd"><path fill="#FFE512" d="M.06 213h212.632V.308H.06z"/><path fill="#52524F" d="M85.889 166.186s-.604 0-.898.528l-5.27 9.461s-.294.528-.408-.065l-1.789-9.331s-.114-.593-.718-.593h-5.268s-.604 0-.484.592l3.54 17.517s.119.592-.179 1.117l-3.862 6.804s-.299.525.305.525h4.989s.604 0 .904-.525l14.537-25.505s.299-.525-.305-.525h-5.094m8.199-6.766s-.604 0-.56.602l1.88 25.849s.044.602.648.602h5.046s.604 0 .831-.56l6.177-15.26s.226-.56.247.044l.527 15.172s.021.604.625.604h5.258s.605 0 .858-.548l12.005-25.957s.254-.548-.35-.548h-5.511s-.604 0-.859.547l-6.78 14.54s-.255.547-.288-.056l-.792-14.428s-.033-.603-.637-.603h-4.086s-.605 0-.841.556l-6.186 14.522s-.237.556-.282-.046l-1.061-14.43s-.045-.602-.649-.602h-5.22m30.843 26.459s-.11.594.494.594h4.868s.605 0 .714-.594l1.971-10.662c.185-.988.812-4.468 4.211-4.468 3.255 0 2.585 3.7 2.409 4.681l-1.939 10.449s-.111.594.494.594h4.862s.605 0 .715-.594l1.99-10.735c.675-3.621.823-5.409-.525-7.422-.995-1.536-3.167-2.231-5.104-2.231-2.167 0-4.342.734-5.701 2.562h-.04s-.039 0 .071-.594l1.382-7.445s.11-.594-.494-.594h-4.862s-.604 0-.714.594l-4.802 25.865m31.593-19.011s.11-.594-.494-.594h-4.859s-.604 0-.715.594l-3.542 19.107s-.11.594.494.594h4.86s.605 0 .715-.594l3.541-19.107m1.253-6.764s.11-.594-.495-.594h-4.856s-.604 0-.714.594l-.633 3.419s-.11.594.494.594h4.857s.604 0 .714-.594l.633-3.419m11.93 0s.11-.594-.494-.594h-4.862s-.604 0-.714.594l-1.148 6.17h-2.392s-.605 0-.715.594l-.743 4.016h2.391s.604 0 .494.594l-2.684 14.497s-.11.594.494.594h4.86s.605 0 .715-.594l2.797-15.091h2.324s.604 0 .714-.594l.739-4.016h-2.314s-.605 0-.495-.594l1.033-5.576M50.719 176.389c.425-2.304 2.502-5.231 5.979-5.231 3.438 0 4.612 2.702 4.164 5.158-.37 1.973-2.24 5.192-6.046 5.192-3.661 0-4.45-3.219-4.097-5.119m17.976-9.609s.11-.594-.494-.594h-5.467l-.583 2.584c-.502-1.244-1.953-3.279-5.283-3.279-5.41 0-10.974 4.165-12.207 10.825-1.079 5.813 1.753 10.858 8.19 10.858 2.374 0 4.936-1.553 6.323-3.525l-.42 2.231s-.112.593.492.593h5.193s.605 0 .715-.594l3.541-19.099m108.644 7.888c.482-1.205 2.109-3.47 5.25-3.47 3.147 0 3.929 2.265 3.949 2.867 0 0 .021.603-.583.603h-8.616zm7.038 6.172c-1.04 1.06-1.882 1.4-3.745 1.4-2.374 0-4.173-1.221-4.092-3.631h14.607s.604 0 .686-.239c.081-.238.266-.905.415-1.706 1.14-6.184-2.501-10.954-8.687-10.954-6.175 0-11.584 5.095-12.632 10.769-1.124 6.032 2.94 10.746 8.758 10.746 2.075 0 4.202-.286 6.111-1.497 1.937-1.166 3.919-2.624 5.002-4.375 0 0 .318-.513-.286-.513h-6.137zM31.228 164.056h2.524c3.386.123 4.63 1.85 4.177 4.3-.243 1.317-1.323 3.638-5.764 3.531h-1.843s-.604 0-.489-.593l1.395-7.238zm-10.741 21.823s-.111.594.494.594h5.406s.604 0 .714-.594l1.513-8.14h.034s.033 0 .393.486l5.75 7.763s.359.485.963.485h6.688s.604 0 .223-.469l-6.705-8.266s-.381-.469.217-.555c4.478-.643 7.542-5.386 8.117-8.497.515-2.78.106-5.174-1.901-7.36-2.293-2.484-4.408-2.45-8.351-2.315h-7.951s-.604 0-.714.594l-4.89 26.274zm173.53-.832h.43c.363 0 .696-.019.696-.436 0-.351-.303-.406-.581-.406h-.545v.842zm-.412-1.175h1.023c.63 0 .926.248.926.758 0 .477-.303.677-.695.719l.755 1.168h-.441l-.721-1.138h-.435v1.138h-.412v-2.645zm.884 3.256c1.047 0 1.858-.835 1.858-1.942 0-1.083-.811-1.919-1.858-1.919-1.06 0-1.871.836-1.871 1.919 0 1.107.811 1.942 1.871 1.942zm0-4.194c1.235 0 2.27.974 2.27 2.252a2.256 2.256 0 01-2.27 2.275 2.262 2.262 0 01-2.282-2.275c0-1.278 1.041-2.252 2.282-2.252z"/></g></svg>