<svg xmlns="http://www.w3.org/2000/svg" width="19" height="6" viewBox="0 0 19 6">
  <g fill="none">
    <path fill="#007DBA" d="M15.4123334,1.83766667 C15.6763334,1.83766667 15.9750001,2.06566667 15.9750001,2.38166668 C15.9750001,2.56033334 15.9176667,2.69766668 15.8350001,2.82166668 C15.7816667,2.90166668 15.7403334,2.99366668 15.7243334,3.06033335 C15.7056667,3.13633335 15.6656667,3.31766668 15.8896667,3.32166668 C16.0336667,3.32566668 16.3910001,3.199 16.6803334,2.85233334 C16.9016667,2.57366668 17.0336667,2.21900001 17.0336667,1.83366667 C17.0336667,0.931000003 16.3083334,0.199 15.4136667,0.199 C14.5176667,0.199 13.7923334,0.931000003 13.7923334,1.83366667 C13.7923334,2.21900001 13.9243334,2.57366668 14.1456667,2.85233334 C14.4350001,3.20033335 14.7896667,3.32566668 14.9363334,3.32166668 C15.1590001,3.31766668 15.1190001,3.13633335 15.1016667,3.06033335 C15.0856667,2.99366668 15.0443334,2.90166668 14.9910001,2.82166668 C14.9083334,2.69633334 14.8510001,2.55766668 14.8510001,2.38166668 C14.8483334,2.06700001 15.1483334,1.83766667 15.4123334,1.83766667 M18.2790001,3.48966668 C18.2123334,3.43500001 18.0963334,3.35500001 17.8576667,3.31766668 C17.5256667,3.26700001 17.2296667,3.34566668 17.0510001,3.41633335 C16.8163334,3.50966668 16.5270001,3.72033335 16.3283334,3.99500002 C16.1176667,4.28566668 16.0083334,4.72300002 16.1136667,5.18033335 C16.1430001,5.30833335 16.1750001,5.38033335 16.2230001,5.47233336 C16.2843334,5.59500002 16.4496667,5.76566669 16.5936667,5.79633336 C16.7083334,5.81900002 16.7963334,5.75500002 16.8390001,5.70566669 C17.1296667,5.36966669 18.2270001,4.06966668 18.3456667,3.90300002 C18.4616667,3.73633335 18.3870001,3.57900001 18.2790001,3.48966668 M13.7736667,3.41633335 C13.5950001,3.34566668 13.2990001,3.26833335 12.9670001,3.31766668 C12.7283334,3.35500001 12.6096667,3.43366668 12.5456667,3.48966668 C12.439,3.57900001 12.3616667,3.73766668 12.479,3.90166668 C12.5976667,4.06700002 13.6963334,5.36833335 13.9856667,5.70433336 C14.0283334,5.75366669 14.1190001,5.81900002 14.2310001,5.79500002 C14.3750001,5.76433336 14.5403334,5.59366669 14.6016667,5.47100002 C14.6496667,5.38166669 14.6803334,5.30833335 14.7110001,5.17900002 C14.8150001,4.72166669 14.7043334,4.28433335 14.4963334,3.99366668 C14.2976667,3.71900001 14.0083334,3.50966668 13.7736667,3.41633335"/>
    <path fill="#FFFFFF" d="M11.8416667,4.60566669 L10.4883334,4.60566669 L11.0443334,3.87366668 L9.54033337,3.87366668 L9.00433337,4.57766668 C8.80433337,4.85766669 8.78433337,5.14033335 8.78433337,5.33633335 L8.78433337,5.44700002 C8.78433337,5.57500002 8.86300003,5.64566669 8.9816667,5.64566669 L11.843,5.64566669 C11.959,5.64566669 12.0363334,5.58166669 12.0363334,5.45233336 L12.0363334,4.80033335 C12.035,4.66966669 11.9563334,4.60566669 11.8416667,4.60566669 M4.13366668,2.02166667 C4.11233335,1.89900001 4.02833335,1.83900001 3.92166668,1.83900001 L3.53900001,1.83900001 C3.14033334,1.83900001 2.78966668,2.04966667 2.59233334,2.36966668 C2.59233334,2.36966668 2.22700001,2.95366668 1.819,3.61100001 L4.41766668,3.61100001 L4.13366668,2.02166667 Z M8.4136667,2.03100001 C8.4136667,1.90033334 8.33500003,1.83766667 8.22033336,1.83766667 L7.44033336,1.83766667 C7.32433336,1.83766667 7.24700003,1.90166667 7.24700003,2.03100001 L7.24700003,3.50700001 L6.50966669,2.17900001 C6.36166669,1.93366667 6.11366669,1.84033334 5.82433335,1.83633334 L5.24833335,1.83633334 C5.13366669,1.83633334 5.05633335,1.90033334 5.05633335,2.02966667 L5.05633335,3.60833335 L6.02433336,3.60833335 L6.17366669,3.87233335 L5.05633335,3.87233335 L5.05633335,5.45100002 C5.05633335,5.58166669 5.13500002,5.64566669 5.24833335,5.64566669 L6.02966669,5.64566669 C6.14566669,5.64566669 6.22166669,5.58033336 6.22166669,5.45100002 L6.22166669,3.96566668 L6.96700003,5.30433335 C7.11233336,5.54833336 7.36166669,5.64033336 7.6496667,5.64700002 L8.22033336,5.64700002 C8.33633337,5.64700002 8.4136667,5.58166669 8.4136667,5.45233336 L8.4136667,3.87500002 L7.45366669,3.87500002 L7.30566669,3.61100001 L8.4136667,3.61100001 L8.4136667,2.03100001 Z M4.46166668,3.87500002 L3.17900001,3.87500002 C3.21100001,4.05500002 3.44833334,5.38966669 3.46166668,5.46566669 C3.48433335,5.58566669 3.55900001,5.64700002 3.66833335,5.64700002 L4.55100002,5.64700002 C4.63100002,5.64700002 4.67233335,5.62166669 4.71100002,5.57633336 C4.73633335,5.54433336 4.74700002,5.49633336 4.73500002,5.42300002 L4.46166668,3.87500002 Z M0.695,5.40833336 C0.660333333,5.46833336 0.660333333,5.53100002 0.681666667,5.57100002 C0.705666667,5.61900002 0.760333334,5.64700002 0.820333334,5.64700002 L1.73766667,5.64700002 C1.85366667,5.64700002 1.95633334,5.58566669 2.01366667,5.49233336 L3.02566668,3.87500002 L1.65233334,3.87500002 C1.18166667,4.62833335 0.707,5.39100002 0.695,5.40833336 M9.00700003,2.87633334 L10.2976667,2.87633334 L9.7416667,3.60833335 L11.2456667,3.60833335 L11.795,2.88700001 C11.9643334,2.66433334 12.003,2.46433334 12.003,2.28833334 L12.003,2.03633334 C12.003,1.90833334 11.9243334,1.83766667 11.8056667,1.83766667 L9.00700003,1.83766667 C8.89100003,1.83766667 8.81500003,1.90166667 8.81500003,2.03100001 L8.81500003,2.68300001 C8.81233337,2.81366668 8.89100003,2.87633334 9.00700003,2.87633334"/>
  </g>
</svg>
