<?xml version="1.0" encoding="UTF-8" standalone="no"?><!DOCTYPE svg PUBLIC "-//W3C//DTD SVG 1.1//EN" "http://www.w3.org/Graphics/SVG/1.1/DTD/svg11.dtd"><svg width="100%" height="100%" viewBox="0 0 19 4" version="1.1" xmlns="http://www.w3.org/2000/svg" xmlns:xlink="http://www.w3.org/1999/xlink" xml:space="preserve" xmlns:serif="http://www.serif.com/" style="fill-rule:evenodd;clip-rule:evenodd;stroke-linejoin:round;stroke-miterlimit:2;"><rect id="Artboard3" x="0" y="0" width="18.625" height="3.207" style="fill:none;"/><g><path d="M1.078,1.751c-0.072,0.144 -0.225,0.253 -0.452,0.253c-0.353,0 -0.57,-0.235 -0.57,-0.565c0,-0.309 0.18,-0.572 0.546,-0.572c0.358,0 0.519,0.215 0.527,0.428l-0.368,0c-0.03,-0.113 -0.1,-0.135 -0.151,-0.135c-0.064,0 -0.174,0.045 -0.174,0.272c0,0.228 0.11,0.272 0.174,0.272c0.04,0 0.093,-0.017 0.132,-0.08c0.012,-0.02 0.026,-0.05 0.029,-0.075l0.358,0c0,0.069 -0.024,0.148 -0.051,0.202" style="fill:#fff;fill-rule:nonzero;"/><path d="M1.614,1.393c-0.093,0 -0.102,0.129 -0.102,0.196c0,0.068 0.01,0.196 0.102,0.196c0.092,0 0.103,-0.129 0.103,-0.196c0,-0.067 -0.011,-0.196 -0.103,-0.196m-0.004,0.61c-0.268,0 -0.444,-0.161 -0.444,-0.424c0,-0.266 0.186,-0.418 0.444,-0.418c0.259,0 0.451,0.156 0.451,0.424c0,0.27 -0.194,0.418 -0.451,0.418" style="fill:#fff;fill-rule:nonzero;"/><path d="M4.092,1.97l0,-0.425c0,-0.074 -0.025,-0.104 -0.077,-0.104c-0.052,0 -0.088,0.048 -0.088,0.11l0,0.42l-0.335,0l0,-0.424c0,-0.074 -0.025,-0.103 -0.077,-0.103c-0.055,0 -0.089,0.047 -0.089,0.108l0,0.418l-0.329,0l0,-0.424c0,-0.074 -0.025,-0.103 -0.077,-0.103c-0.055,0 -0.089,0.047 -0.089,0.108l0,0.418l-0.329,0l0,-0.424c0,-0.074 -0.025,-0.103 -0.077,-0.103c-0.055,0 -0.089,0.047 -0.089,0.108l0,0.418l-0.329,0l0,-0.763l0.299,0l0.008,0.067c0.05,-0.062 0.133,-0.107 0.239,-0.107c0.105,0 0.212,0.051 0.248,0.118c0.041,-0.063 0.143,-0.116 0.251,-0.116c0.125,0 0.208,0.063 0.247,0.121c0.037,-0.057 0.136,-0.121 0.241,-0.121c0.132,0 0.203,0.055 0.252,0.121c0.077,-0.103 0.177,-0.121 0.239,-0.121c0.236,0 0.291,0.152 0.291,0.322l0,0.479l-0.33,0.002" style="fill:#fff;fill-rule:nonzero;"/><path d="M4.916,1.393c-0.093,0 -0.103,0.129 -0.103,0.196c0,0.068 0.011,0.196 0.103,0.196c0.092,0 0.103,-0.129 0.103,-0.196c0,-0.067 -0.011,-0.196 -0.103,-0.196m-0.004,0.61c-0.269,0 -0.444,-0.161 -0.444,-0.424c0,-0.266 0.187,-0.418 0.444,-0.418c0.258,0 0.451,0.156 0.451,0.424c0,0.27 -0.195,0.418 -0.451,0.418" style="fill:#fff;fill-rule:nonzero;"/><path d="M5.91,1.967l0,-0.424c0,-0.073 -0.031,-0.102 -0.084,-0.102c-0.055,0 -0.089,0.047 -0.089,0.108l0,0.417l-0.329,0l0,-0.761l0.303,0l0.004,0.077c0.063,-0.077 0.149,-0.116 0.239,-0.116c0.11,0 0.291,0.063 0.291,0.259l0,0.542l-0.335,0" style="fill:#fff;fill-rule:nonzero;"/><path d="M7.355,1.967l-0.344,-0.001c0,0 -0.045,-0.134 -0.063,-0.218c-0.03,-0.103 -0.033,-0.147 -0.033,-0.147c0,0 -0.001,0.044 -0.03,0.147c-0.016,0.078 -0.063,0.22 -0.063,0.22l-0.347,0l-0.229,-0.761l0.358,0c0,0 0.04,0.13 0.055,0.204c0.023,0.084 0.027,0.134 0.027,0.134c0,0 0.004,-0.049 0.029,-0.134c0.016,-0.078 0.058,-0.204 0.058,-0.204l0.301,0c0,0 0.041,0.126 0.058,0.204c0.026,0.091 0.029,0.134 0.029,0.134c0,0 0.003,-0.042 0.029,-0.134c0.015,-0.072 0.055,-0.204 0.055,-0.204l0.342,0l-0.232,0.76" style="fill:#fff;fill-rule:nonzero;"/><path d="M8.005,1.355c-0.065,0 -0.108,0.052 -0.114,0.116l0.224,0c-0.006,-0.062 -0.049,-0.116 -0.11,-0.116m-0.118,0.284c0.001,0.077 0.034,0.143 0.122,0.143c0.043,0 0.096,-0.022 0.111,-0.068l0.316,0c-0.005,0.034 -0.024,0.072 -0.041,0.098c-0.084,0.126 -0.244,0.189 -0.398,0.189c-0.281,0 -0.45,-0.167 -0.458,-0.406c-0.006,-0.213 0.118,-0.435 0.434,-0.435c0.292,0 0.469,0.179 0.469,0.479l-0.555,0Z" style="fill:#fff;fill-rule:nonzero;"/><path d="M8.99,1.63c0,0 -0.044,0.014 -0.085,0.026c-0.025,0.007 -0.091,0.019 -0.091,0.07c0,0.026 0.022,0.058 0.067,0.056c0.085,-0.003 0.108,-0.053 0.108,-0.128l0.001,-0.024m0.041,0.337l-0.009,-0.068c-0.056,0.058 -0.171,0.103 -0.259,0.103c-0.055,0 -0.182,-0.011 -0.248,-0.099c-0.052,-0.073 -0.059,-0.19 -0.012,-0.265c0.063,-0.101 0.21,-0.139 0.354,-0.157c0.053,-0.006 0.126,-0.022 0.126,-0.069c0,-0.036 -0.019,-0.067 -0.067,-0.067c-0.048,0 -0.091,0.04 -0.091,0.092l-0.313,0l0.001,-0.009c0.033,-0.182 0.166,-0.274 0.391,-0.274c0.381,0 0.426,0.133 0.428,0.362l0.003,0.213c0.001,0.147 0.01,0.179 0.025,0.24l-0.329,-0.002Z" style="fill:#fff;fill-rule:nonzero;"/><rect x="9.42" y="0.892" width="0.329" height="1.074" style="fill:#fff;"/><path d="M10.171,1.992c-0.218,0 -0.277,-0.104 -0.277,-0.309l0,-0.267l-0.102,0l0,-0.21l0.101,0l0,-0.314l0.329,0l0,0.314l0.13,0l0,0.21l-0.13,0l0,0.208c0,0.073 0.024,0.12 0.099,0.12c0.011,0 0.026,-0.001 0.041,-0.004c0.008,-0.001 0.008,-0.003 0.008,-0.003l0,0.215c-0.061,0.029 -0.132,0.04 -0.199,0.04" style="fill:#fff;fill-rule:nonzero;"/><path d="M11.266,1.967l-0.33,0l0,-0.421c0,-0.074 -0.033,-0.104 -0.085,-0.104c-0.053,0 -0.088,0.048 -0.088,0.11l0,0.415l-0.343,0l0,-1.075l0.32,0l0,0.391c0.049,-0.062 0.144,-0.116 0.237,-0.116c0.111,0 0.288,0.063 0.288,0.259l0.001,0.541" style="fill:#fff;fill-rule:nonzero;"/><path d="M11.877,1.453c0.102,0 0.273,0.026 0.273,0.208c0,0.195 -0.171,0.223 -0.273,0.223l-0.332,0l0,-0.43l0.332,-0.001m-0.012,-0.473c0.089,0 0.237,0.026 0.237,0.195c0,0.125 -0.08,0.193 -0.225,0.193l-0.332,0l0,-0.388l0.32,0Zm-0.405,-0.085l-0.009,0l0,1.075l0.426,0c0.23,0 0.368,-0.114 0.368,-0.307c0,-0.17 -0.128,-0.246 -0.207,-0.264c0.095,-0.028 0.158,-0.114 0.158,-0.229c0,-0.173 -0.124,-0.276 -0.331,-0.276l-0.405,0.001Z" style="fill:#fff;fill-rule:nonzero;"/><path d="M12.803,1.559l0,0.113c0,0.061 -0.046,0.236 -0.253,0.236c-0.099,0 -0.168,-0.06 -0.168,-0.145c0,-0.115 0.087,-0.138 0.179,-0.163c0.072,-0.019 0.173,-0.034 0.242,-0.041m0.176,0.331l-0.011,0.001l-0.033,0.003c-0.019,0 -0.044,-0.007 -0.044,-0.07l0,-0.418c0,-0.147 -0.093,-0.224 -0.269,-0.224c-0.172,0 -0.276,0.086 -0.292,0.241l-0.001,0.009l0.09,0l0.001,-0.007c0.004,-0.038 0.016,-0.071 0.035,-0.095c0.033,-0.045 0.09,-0.069 0.163,-0.069c0.172,0 0.186,0.108 0.186,0.141l0,0.023c0,0.048 -0.031,0.062 -0.077,0.067c-0.11,0.015 -0.247,0.04 -0.329,0.088c-0.016,0.008 -0.056,0.034 -0.076,0.075c-0.034,0.058 -0.036,0.149 -0.005,0.217c0.036,0.077 0.117,0.118 0.23,0.118c0.118,0 0.205,-0.05 0.26,-0.143l0,0.012c0.002,0.078 0.039,0.115 0.114,0.115l0.06,-0.01l-0.001,-0.007l-0.001,-0.067Z" style="fill:#fff;fill-rule:nonzero;"/><path d="M13.364,1.181c-0.105,0 -0.195,0.057 -0.24,0.142l0,-0.121l-0.087,0l0,0.768l0.087,0l0,-0.429c0,-0.167 0.095,-0.281 0.237,-0.281c0.125,0 0.186,0.075 0.186,0.228l0,0.482l0.087,0l0,-0.482c0,-0.076 0,-0.307 -0.27,-0.307" style="fill:#fff;fill-rule:nonzero;"/><path d="M14.026,1.49c0.01,-0.01 0.303,-0.289 0.303,-0.289l-0.12,0c0,0 -0.359,0.344 -0.386,0.368l0,-0.677l-0.088,0l0,1.076l0.088,0l0,-0.29c0.006,-0.004 0.124,-0.113 0.137,-0.124c0.011,0.015 0.283,0.414 0.283,0.414l0.108,0c0,0.002 -0.316,-0.466 -0.325,-0.478" style="fill:#fff;fill-rule:nonzero;"/><path d="M18.124,1.202l-1.148,-1.148l-1.528,1.528l1.528,1.527l0.67,-1.43l0.478,-0.477Z" style="fill:#ffc425;fill-rule:nonzero;"/><path d="M18.159,1.235l-1.183,1.874l0.058,0.062l1.528,-1.527l-0.403,-0.409Z" style="fill:#fff;fill-rule:nonzero;"/><path d="M18.124,1.202l-0.478,0.477l-0.67,1.43l1.527,-1.527l-0.379,-0.38Z" style="fill-rule:nonzero;"/></g></svg>