<svg xmlns="http://www.w3.org/2000/svg" width="24" height="8" viewBox="0 0 24 8">
  <g fill="none">
    <path fill="#FFFFFF" d="M11.9878841,5.76680253 L11.9878841,6.82679518 C11.6904142,7.0473746 10.9726613,7.3058109 10.1874617,7.3058109 C8.98197891,7.3058109 7.82833948,6.52040683 7.82833948,5.15503535 C7.82833948,3.82348268 8.99909223,2.97044099 10.169845,2.97044099 C10.4656099,2.96549951 10.7604059,3.00566581 11.0441346,3.08956397 C11.2535211,3.14003981 11.428681,3.20868695 11.550991,3.20868695 C11.6904142,3.20868695 11.7779942,3.05473564 11.7946042,3.00375504 L11.8816808,3.00375504 C11.8827974,3.44326446 11.9177995,3.88202941 11.9863741,4.31612689 L11.8816808,4.34994569 C11.6380676,3.59936996 10.833238,3.23947722 10.2206816,3.25815328 C9.22458546,3.27531506 8.70011238,4.12835676 8.68299906,5.08436918 C8.6653824,6.14436182 9.27693211,6.99588925 10.2554116,6.99588925 C10.6077448,6.99588925 11.0607446,6.96156567 11.2343945,6.72281495 L11.2343945,5.76680253 C11.2343945,5.25497751 10.9545413,5.13534978 10.7446514,5.13534978 L10.7446514,5.06670263 L12.4927272,5.06670263 L12.4927272,5.13534978 C12.2828373,5.13534978 11.9853674,5.253968 11.9853674,5.76680253 L11.9853674,5.76680253 L11.9878841,5.76680253 Z M6.62235341,4.21366094 L6.62235341,7.26896353 L6.41296685,7.26896353 L3.45890497,3.82297793 C3.48747071,3.91100974 3.4992526,4.00364827 3.49363495,4.09605223 L3.49363495,6.26398956 C3.49363495,6.98074649 3.66879486,7.18567839 4.07045466,7.18567839 L4.07045466,7.27098257 L2.58562207,7.27098257 L2.58562207,7.18567839 C2.9696652,7.18567839 3.14482513,6.98074649 3.14482513,6.26398956 L3.14482513,3.63369353 C3.14482513,3.32629566 2.83024194,3.08704018 2.46280878,3.08704018 L2.46280878,3.00325029 L3.75637482,3.00325029 L6.30777024,5.95558217 C6.27870144,5.86175214 6.26676553,5.76342954 6.27253691,5.66534609 L6.27253691,4.21366094 C6.27253691,3.68467413 6.25542358,3.08704018 5.71333385,3.08704018 L5.71333385,3.00325029 L7.16393981,3.00325029 L7.16393981,3.08855446 C6.63946674,3.08855446 6.62185008,3.6861884 6.62185008,4.21467045 L6.62185008,4.21467045 L6.62235341,4.21366094 Z M1.23920606,3.70183591 L1.23920606,6.46791195 C1.25732605,6.70565317 1.18887275,7.18466888 1.72894915,7.18466888 L1.72894915,7.26997306 L0.017616658,7.26997306 L0.017616658,7.18466888 C0.559203059,7.18466888 0.470616435,6.70666268 0.506856417,6.46791195 L0.506856417,3.70183591 C0.506856417,3.19001089 0.209889896,3.08754493 0,3.08754493 L0,3.00325029 L1.76619581,3.00325029 L1.76619581,3.08855446 C1.53919258,3.08855446 1.24172272,3.18950613 1.24172272,3.70284542 L1.24172272,3.70284542 L1.23920606,3.70183591 Z M17.5119648,7.28057298 L17.6433347,7.10945988 C17.7530612,7.16902137 17.9020479,7.18618317 18.0017078,7.09684092 C17.9231878,7.04081275 17.8210113,7.01507006 17.7319212,6.96913705 C17.7319212,6.83588083 17.7998713,6.65972015 17.6508847,6.58249211 C17.5483268,6.53586043 17.4281445,6.55276899 17.3423415,6.62590133 L17.2980482,6.67637718 C17.2477149,6.63801554 17.1762415,6.57542549 17.1042649,6.55422564 C17.1083705,6.49822803 17.1162744,6.44257584 17.1279216,6.38765536 C17.2899948,6.30891306 17.4344515,6.43106458 17.5889747,6.42349322 C17.5063654,6.29072527 17.3599285,6.21163654 17.2039249,6.21553275 C17.0967149,6.21048516 16.9869883,6.23067551 16.9336349,6.33818905 C16.8057884,6.2877132 16.6698885,6.35837937 16.5521085,6.40431239 L16.324602,6.80307153 C16.2924971,6.97453922 16.3417994,7.15122391 16.4579852,7.28107774 L17.5149847,7.28107774 L17.5119648,7.28057298 Z M20.4106599,7.28562057 C20.4276996,7.18348483 20.4503845,7.08237734 20.47861,6.98276553 C20.5047832,6.95449905 20.5289432,6.90856603 20.5732366,6.90856603 C20.5998368,6.98154273 20.6335558,7.05170788 20.6739032,7.11804077 C20.7324978,7.08976692 20.771081,7.03172836 20.7745698,6.96661326 C20.7535738,6.89875262 20.7124969,6.838899 20.6567898,6.7949954 L20.7378264,6.67284386 C20.7881598,6.71120551 20.8349697,6.77985264 20.907953,6.75158618 C20.929093,6.73139584 20.9784197,6.71827211 20.9497297,6.67789144 C20.8379897,6.61631092 20.7564498,6.41693135 20.6044432,6.49365464 C20.3663667,6.70161509 20.2873434,7.0024511 20.2848268,7.28612533 C20.2193934,7.27603015 20.1096667,6.87474723 20.1096667,6.87474723 C20.1564768,6.86969965 20.1725835,6.93430872 20.2168767,6.93582299 C20.2405333,6.88534716 20.3175433,6.83083324 20.2591567,6.76975749 C20.2224133,6.7233197 20.1227534,6.67284386 20.1962401,6.61126335 C20.2140692,6.59033818 20.2289709,6.56707337 20.2405333,6.54211144 C20.271235,6.58676235 20.3282258,6.60484323 20.3789499,6.58602542 C20.4026067,6.55624467 20.3608299,6.51889255 20.3658634,6.48103567 C20.4237467,6.46841671 20.5259232,6.53706386 20.5546133,6.45125493 C20.4539465,6.37705544 20.3135167,6.31345589 20.1771134,6.36696028 C20.1222501,6.51283545 19.9657135,6.45630251 19.8504503,6.45125493 L19.8081703,6.40986475 C19.6617003,6.62236803 19.4558371,6.8641473 19.5565036,7.13873587 L19.643077,7.27956346 L20.4106599,7.28612533 L20.4106599,7.28562057 Z M21.6085928,1.60204096 L21.5476893,1.68885941 C21.6257061,1.75296372 21.7097627,1.81202046 21.8194893,1.80394432 C21.8381127,1.74741138 21.7907993,1.70299264 21.7621093,1.65806915 L21.6111094,1.60204096 L21.6111094,1.60204096 L21.6085928,1.60204096 Z M21.057443,2.27437915 C21.1464875,2.28038848 21.2339167,2.30119892 21.3161561,2.33595967 C21.3317595,2.29507425 21.2854529,2.26428399 21.2854529,2.22592235 C21.3803784,2.20358093 21.4765057,2.18672787 21.5733594,2.17544651 C21.5864461,2.14566576 21.5396361,2.11941832 21.5159794,2.10124702 C21.4107827,2.08307572 21.3010563,2.06036159 21.1963629,2.05077118 C21.170693,2.08358048 21.2119662,2.11941832 21.2094496,2.16030375 C21.1258962,2.16837989 21.0443563,2.12194212 20.9577831,2.14263721 L21.0584497,2.27034109 L21.0584497,2.27034109 L21.057443,2.27437915 Z"/>
    <path fill="#FF671B" d="M16.6417018,0.868122247 L16.849075,0.784332352 C16.8183717,0.885284032 16.7781051,0.992292814 16.7861584,1.10384442 C16.856625,1.03721631 16.9301116,0.968064411 16.9431983,0.875693624 L17.013665,0.771208634 C17.1056795,0.742952358 17.2040203,0.742952358 17.2960348,0.771208634 C17.2656763,0.775139527 17.240866,0.797411699 17.2336215,0.827236816 L17.2336215,0.906483885 C17.3695214,0.944845524 17.4465314,0.745465956 17.5859548,0.856008045 L17.6614546,0.896893475 C17.596259,0.919319701 17.5377492,0.957858103 17.4913281,1.00894984 L17.5044147,1.01954977 C17.6146447,1.01197839 17.7299079,1.01954977 17.8240312,0.969073927 C18.0782144,1.11494911 18.1456611,1.39054719 18.2322343,1.61365041 C18.2048223,1.59991499 18.1757088,1.58990011 18.1456611,1.58386966 C18.1391714,1.6207041 18.1478923,1.65860166 18.1698211,1.68885941 C18.1934777,1.72217346 18.234751,1.71409733 18.263441,1.73176387 C18.3731677,1.95436233 18.6822142,2.00534293 18.7295274,2.25873164 C18.7904307,2.43489232 18.8186174,2.62417673 18.8684475,2.80588974 C18.8397574,2.7725757 18.7466407,2.76954715 18.6902674,2.73673785 C18.6847308,2.81598492 18.7557008,2.89523199 18.8291873,2.93359363 L18.9625706,2.98406947 C19.0106189,3.09000648 19.0444685,3.20185703 19.0632373,3.31670526 C19.0214607,3.31670526 18.958544,3.23493439 18.9122374,3.2808674 C18.9372956,3.3752571 18.9984148,3.45595252 19.082364,3.5054849 L19.0949472,3.74070232 C19.3697835,3.97927796 19.7481967,4.05815425 20.0950702,3.94916753 C20.1853474,3.92304487 20.2704756,3.88155541 20.3467367,3.82651125 C20.3351507,3.68050565 20.4154991,3.54272116 20.5480698,3.48125649 C20.9134897,3.33588608 21.2310929,3.61956029 21.4661494,3.86790143 C22.1104158,4.60182014 22.2578925,5.63455584 22.0449824,6.5935968 C22.2327257,6.69454848 22.5155989,6.66779629 22.7093821,6.58097783 C23.3974385,6.21805654 23.6516216,5.49221397 23.6259517,4.7709142 C23.590666,3.81039337 23.0339865,2.94627842 22.1753457,2.51918698 C21.8733458,2.50152043 21.5184961,2.64689085 21.2643129,2.44498749 C21.1938462,2.39451165 21.1097897,2.35312147 21.0629796,2.27336964 C21.1521562,2.27958005 21.2397185,2.30038171 21.3221962,2.33495016 C21.3377996,2.29406473 21.2919962,2.26377923 21.2919962,2.22491283 C21.3868433,2.20301991 21.4827782,2.18617112 21.5793994,2.17443699 C21.5929894,2.14465624 21.545676,2.11840881 21.5215161,2.10074226 C21.416096,2.07834562 21.3095793,2.06149729 21.2024028,2.05026642 C21.1762296,2.08307572 21.2180062,2.11891357 21.2154895,2.16030375 C21.131433,2.16737037 21.0508997,2.12143736 20.963823,2.14213245 C20.8722164,2.01140003 20.8279231,1.844325 20.6683666,1.76103986 C20.963823,1.67220238 21.2673329,1.50058453 21.6156394,1.59497435 L21.5522194,1.68078327 C21.6302361,1.74438283 21.7142926,1.80343956 21.8240193,1.79536343 C21.8426426,1.73933525 21.7958325,1.69441175 21.7666393,1.65049777 C22.0183058,1.72722105 22.0887725,1.99272397 22.2644357,2.15878948 C22.5100623,2.45003508 22.8528322,2.54745345 23.0909086,2.83869905 C23.8826515,3.70789301 24.2274347,5.04247422 23.7195717,6.14638085 C23.4709251,6.6117681 23.009872,7.08725052 22.4612389,7.16346903 C22.2732182,7.20137345 22.0800147,7.2058157 21.8904592,7.17659275 C21.782746,7.27754444 21.6262094,7.26341119 21.4817528,7.28158249 L20.4111633,7.28158249 C20.4282212,7.17945034 20.4509059,7.07834388 20.4791133,6.97872745 C20.5047832,6.95096574 20.5294465,6.90503273 20.5727333,6.90503273 C20.5999783,6.97725026 20.6336706,7.04685304 20.6733999,7.11299319 C20.7323702,7.08515454 20.7711227,7.02686115 20.7740664,6.96156567 C20.7532648,6.8937415 20.7123576,6.83387948 20.6567898,6.78994781 L20.7378264,6.66729152 C20.7881598,6.70565317 20.8349697,6.77480505 20.9084564,6.74653859 C20.929093,6.72584349 20.9789231,6.71322455 20.950233,6.6723391 C20.8374864,6.61075858 20.7564498,6.41188377 20.6049465,6.4881023 C20.3663667,6.69757703 20.2878467,6.99689876 20.2853301,7.28057298 C20.2198967,7.27047781 20.1650334,7.29823952 20.1026201,7.28057298 L20.11017,6.86869012 C20.1574834,6.86364255 20.1730868,6.92825162 20.2173801,6.93027064 C20.24154,6.87979482 20.3180466,6.8252809 20.25966,6.76420514 C20.2229167,6.71776736 20.1232568,6.66729152 20.1967434,6.60571099 C20.214946,6.58506654 20.2298841,6.56174485 20.2410367,6.5365591 C20.2716842,6.58159938 20.3290935,6.59974701 20.3799566,6.58047308 C20.4036133,6.55069233 20.3618367,6.51384496 20.36687,6.47548333 C20.4247533,6.46286437 20.5264265,6.53151152 20.5551166,6.44570259 C20.4544499,6.3715031 20.3145233,6.30790355 20.1786234,6.36140794 C20.1237601,6.50677836 19.9652102,6.45075017 19.8514569,6.44570259 L19.8096803,6.40481716 C19.6632103,6.61681569 19.457347,6.85909972 19.5580138,7.13318353 L19.644587,7.27401112 L17.5029047,7.27401112 L17.6337713,7.10239326 C17.743498,7.16195476 17.8929879,7.1796213 17.9921445,7.09027906 C17.9136246,7.03374612 17.8114479,7.00850819 17.7228613,6.96257518 C17.7228613,6.82931897 17.7903079,6.65265353 17.6413212,6.57593025 C17.5385902,6.52933782 17.4182881,6.54623568 17.3322748,6.61933948 L17.2884848,6.66981531 C17.2312084,6.61794015 17.1654966,6.57628442 17.0941983,6.54665426 C17.0984377,6.49080822 17.1065103,6.4353216 17.1183582,6.38058876 C17.2799282,6.30134168 17.4243847,6.42399798 17.578908,6.4164266 C17.4965158,6.28342679 17.3499354,6.20426052 17.1938582,6.20846614 C17.0866482,6.20291379 16.9769217,6.22360888 16.924575,6.33061767 C16.7957217,6.28014182 16.6603251,6.35131277 16.5420419,6.39724578 L16.3145353,6.8010525 C16.2824603,6.97227781 16.331563,7.14872754 16.4474152,7.27855395 L13.6524066,7.27855395 C13.5582833,7.14075491 13.4903334,6.9756989 13.5376467,6.79550015 C13.5477133,6.67637718 13.7228733,6.63195843 13.6760633,6.50677836 C13.7118731,6.40798667 13.7838656,6.3265852 13.8773965,6.27913231 C13.9590581,6.24719165 14.0481193,6.23931106 14.1340964,6.25641818 C14.2724909,6.12031403 14.4787012,6.08054592 14.6575628,6.15546651 L14.7521894,6.19837097 C14.840776,6.02725787 14.873996,5.83343065 14.9399326,5.65171762 L15.1785125,5.11970226 C15.0567059,4.76990469 14.9348993,4.41657381 14.869466,4.04658589 C14.8719827,3.98702441 14.947986,3.97491021 14.9635893,3.92342486 C14.9822126,3.85477771 15.0340559,3.78865435 15.0139226,3.71899769 C14.9388138,3.74145288 14.8757574,3.79305839 14.8387627,3.86234909 C14.8337294,3.74322611 14.7652761,3.62460787 14.825676,3.51204675 C14.8704727,3.49387546 14.8991627,3.44339961 14.9409393,3.42018072 C14.922316,3.34093366 14.9716426,3.27935314 14.9459727,3.20515364 C14.8835764,3.23924027 14.8299756,3.2874621 14.7894361,3.34598125 C14.8312127,3.21777261 14.6887694,3.03959288 14.8901027,2.97296479 C14.8744993,2.63528141 14.9052027,2.25418882 15.0119093,1.93467675 L15.1422725,1.75043993 C15.1397164,1.66828817 15.1468119,1.58612023 15.1634125,1.50563211 L15.3310225,1.36934734 C15.3068625,1.34158563 15.2676025,1.349157 15.2368992,1.33956659 C15.3138096,1.14107158 15.4624175,0.978887903 15.6531556,0.885284032 C15.7236223,0.926169464 15.8202622,0.928693255 15.9048222,0.951407383 L15.9989455,0.951407383 C15.9703078,0.887420289 15.9110972,0.842505982 15.8419055,0.832284401 C15.9335122,0.802503655 16.0200855,0.753037332 16.1247787,0.748494506 C16.1736162,0.846797788 16.2391955,0.935794068 16.318562,1.01147363 C16.3351449,0.939281881 16.3377082,0.864562931 16.326112,0.79139897 C16.309492,0.755209744 16.2883502,0.721287053 16.2631953,0.69044729 C16.3995986,0.729313687 16.5173785,0.806036964 16.6452251,0.861560388 L16.6452251,0.861560388 L16.6417018,0.868122247 Z"/>
    <path fill="#FFFFFF" d="M16.0895454,1.21388175 C16.0789754,1.28808124 16.1544754,1.3007002 16.202292,1.32846191 C16.2647053,1.39509002 16.2727587,1.52531769 16.3905386,1.52531769 C16.5023087,1.52027794 16.6131429,1.54780199 16.7096518,1.60456476 C16.8449281,1.52635542 17.0033088,1.49830574 17.1571149,1.52531769 C17.1807715,1.36429976 17.2960348,1.25779573 17.4450214,1.19571045 C17.575888,1.1623964 17.672528,1.24921484 17.7903079,1.26233856 C17.9080878,1.34410942 17.9413078,1.47433709 17.9916412,1.58689821 C17.9916412,1.75599228 17.9211745,1.92407682 17.7661479,2.00332389 L17.6956812,2.02351423 C17.731575,2.16141115 17.7135693,2.30785058 17.645348,2.4328733 C17.6849418,2.44009448 17.7254533,2.42636165 17.7525579,2.39653069 C17.7651413,2.44700653 17.7344379,2.50909181 17.738968,2.57521517 C17.6997079,2.68979531 17.563808,2.76449956 17.5451846,2.8866511 C17.4948514,2.94621259 17.4354581,3.00577408 17.3624748,3.01485972 C17.357323,3.0223915 17.3555353,3.03173589 17.3575412,3.04064494 C17.3595473,3.04955399 17.3651657,3.05722127 17.3730447,3.06180226 C17.3754533,3.06364246 17.3781851,3.06501226 17.3810981,3.06584032 C17.625679,3.07226141 17.8651958,3.1371556 18.0797244,3.25512473 L18.0852612,3.36465731 C17.8745435,3.24574939 17.6403344,3.17475347 17.3992181,3.15669684 C17.3873225,3.19841861 17.3794014,3.24117822 17.3755615,3.28440072 C17.5868219,3.37352739 17.7836169,3.49381015 17.9594278,3.64126491 C17.9694983,3.68408677 17.9694983,3.72867071 17.9594278,3.77149257 C17.763128,3.61047464 17.5668281,3.4519805 17.3363016,3.37273344 C17.2738881,3.41917121 17.2290915,3.58119865 17.1374849,3.45753285 C17.0264726,3.38086456 16.8993869,3.33078435 16.7660251,3.31115292 C16.7217318,3.2652199 16.7247518,3.19909655 16.7156918,3.13751602 C16.7932806,3.10488555 16.8497934,3.03593359 16.8666917,2.9532792 C16.9114883,2.95075541 16.9950417,2.9946694 17.013665,2.91794611 C17.031785,2.85333704 16.9829616,2.80790878 16.9371584,2.78166134 C16.7489118,2.74885205 16.5239219,2.70594758 16.3588286,2.82052775 C16.3482586,2.86141317 16.3407086,2.93006032 16.4031219,2.94318404 C16.4358463,2.94576406 16.4685992,2.9385626 16.4972452,2.92248894 C16.5052985,2.99416464 16.5420419,3.09864962 16.6356618,3.12691609 C16.6205618,3.196068 16.6411985,3.30105775 16.5470752,3.31620049 C16.3844986,3.33134324 16.2450753,3.39847611 16.1071621,3.46762802 C16.0366954,3.44239009 16.0064955,3.38585715 15.9501222,3.33941938 C15.7400483,3.42930015 15.5449953,3.55102151 15.3717924,3.70032165 C15.3563125,3.65316658 15.3545664,3.60256177 15.3667591,3.55444646 C15.5263157,3.40301894 15.7226156,3.34598125 15.9058288,3.25159141 L15.9058288,3.11581141 C15.8016389,3.08754493 15.6964423,3.11581141 15.591749,3.14155408 L15.5786623,3.12843038 C15.473969,3.19253468 15.3431025,3.21777261 15.2414292,3.29954346 C15.2228058,3.23846771 15.2358925,3.1511445 15.3174325,3.13347795 C15.5061319,3.04025538 15.7146876,2.99468334 15.9249555,3.00072649 C15.9551555,2.86999406 15.8066722,2.80942306 15.7568422,2.71149992 C15.7128711,2.63572365 15.6828636,2.55262731 15.6682556,2.46618735 L15.7120456,2.46618735 C15.681427,2.30135306 15.683308,2.13209982 15.7175823,1.9679908 C15.544939,1.90439124 15.4437691,1.7277258 15.3904158,1.56418408 C15.4060191,1.45162296 15.4769891,1.36228072 15.5368857,1.26132904 C15.662719,1.25173863 15.7412389,1.10990152 15.8826755,1.14674889 C15.9501259,1.1715429 16.0190476,1.19210938 16.0890421,1.20832941 L16.0890421,1.20832941 L16.0895454,1.21388175 Z"/>
    <path fill="#FF671B" d="M16.1519587,1.57377449 C16.0274754,1.62298865 15.9123751,1.6933372 15.8117056,1.78173495 C15.7357023,1.7181354 15.5288324,1.74640187 15.5680924,1.58487918 C15.5982923,1.4778704 15.641579,1.34007135 15.7749622,1.30928109 C15.9138822,1.36581403 16.1272954,1.39105195 16.1514554,1.57276498 L16.1514554,1.57276498 L16.1519587,1.57377449 Z M17.8220179,1.53793665 C17.8486945,1.63283123 17.8275545,1.73984001 17.8169846,1.83170604 C17.7696712,1.88218188 17.6785679,1.83473459 17.646858,1.90590552 C17.5889747,1.76305889 17.4455247,1.63535502 17.3066048,1.56317457 C17.3302614,1.49452742 17.3508981,1.42032794 17.4284114,1.37944251 C17.5567614,1.27445276 17.6800779,1.40518519 17.7867846,1.46424192 L17.8235279,1.53793665 L17.8235279,1.53793665 L17.8220179,1.53793665 Z"/>
    <path fill="#FFFFFF" d="M21.4731962,1.86300106 C21.3659862,1.92660062 21.2582728,1.81656328 21.1591162,1.88874373 L21.043853,1.84987734 C21.1218357,1.80851112 21.2021716,1.77176888 21.2844462,1.73984001 C21.3468595,1.7787064 21.4258828,1.80646812 21.4731962,1.86300106 Z"/>
    <path fill="#FF671B" d="M17.031785,1.76608744 C17.0785949,1.79586819 17.1022515,1.86703912 17.1626515,1.87612477 C17.1795769,1.88674583 17.1870623,1.90759811 17.1807715,1.92660062 C17.1339616,1.95183854 17.0660115,1.92660062 17.013665,1.94426716 C16.956285,1.89833415 16.9769217,1.78324923 16.8752483,1.79283964 C16.8646784,1.76305889 16.8908517,1.77466834 16.9054484,1.76305889 L17.0307784,1.77063027 L17.0307784,1.77063027 L17.031785,1.76608744 Z M16.4272819,1.94224813 L16.2138687,1.93669578 C16.2798053,1.8115157 16.4212419,1.7812302 16.5521085,1.76608744 L16.4262753,1.94224813 L16.4262753,1.94224813 L16.4272819,1.94224813 Z"/>
    <path fill="#FFFFFF" d="M15.1830425,2.10326606 C15.1672429,2.01404039 15.2040748,1.92366447 15.2776692,1.87107719 L15.3033391,1.85795347 L15.3033391,2.03461891 L15.1815325,2.10326606 L15.1815325,2.10326606 L15.1830425,2.10326606 Z M22.0253524,2.22592235 L22.0178025,2.23147469 C21.9766794,2.17964713 21.9197482,2.14276753 21.8557293,2.12648494 C21.7983493,2.07298055 21.7550626,2.00736196 21.6730193,1.99322872 C21.7360361,1.96380416 21.804845,1.9489684 21.8743527,1.9498195 C21.9492426,2.02603146 22.0015234,2.12162692 22.0253524,2.22592235 L22.0253524,2.22592235 Z"/>
    <path fill="#FF671B" d="M16.3326553,2.09518992 C16.3633586,2.11588502 16.4167119,2.13859914 16.4167119,2.18251312 C16.4081553,2.34857864 16.3588286,2.50152043 16.345742,2.66758595 C16.2954086,2.7009 16.217392,2.73926165 16.2073254,2.80841354 C16.1494421,2.82860388 16.0970954,2.86948931 16.0397154,2.88766061 C16.0202596,2.83817332 16.0241444,2.78251957 16.0502854,2.7362331 C16.1126987,2.65950982 16.2153787,2.6645574 16.270242,2.58228178 C16.309502,2.4934443 16.2938987,2.38037842 16.270242,2.28851239 C16.2259487,2.33495016 16.1484354,2.32737878 16.0895454,2.31829314 C16.0054888,2.2774077 16.0004555,2.1779703 15.9068355,2.14718004 L15.8761322,2.1088184 L15.8947555,2.09619944 L16.3341653,2.09619944 L16.3326553,2.09518992 Z M17.5029047,2.12143736 C17.468678,2.2082558 17.3352947,2.19311305 17.3146581,2.29961707 C17.2517415,2.35009292 17.1676849,2.32939782 17.0947016,2.31778838 C17.0639982,2.30466466 17.0554416,2.23551276 17.0186983,2.2738744 C17.0690317,2.38391172 16.974405,2.57672943 17.1495649,2.61155776 C17.1571149,2.74430923 17.3146581,2.73017599 17.3956948,2.78973747 C17.3772018,2.83883359 17.3497172,2.88402901 17.3146581,2.9229937 C17.2411716,2.83869905 17.092185,2.84879421 17.0765816,2.72866172 L16.962325,2.63679568 L16.9255817,2.19462733 C17.0720517,2.0310856 17.3025782,2.14415149 17.5039113,2.12042784 L17.5039113,2.12042784 L17.5029047,2.12143736 Z"/>
    <path fill="#FFFFFF" d="M15.3280025,2.32283597 C15.2152558,2.39198786 15.2972991,2.53786305 15.2469658,2.62972907 L15.2026725,2.85232753 C15.1840492,2.7215951 15.0612359,2.59641501 15.1397559,2.46366355 L15.1900892,2.36271187 C15.2343825,2.34958816 15.2816958,2.3369692 15.3259891,2.32435023 L15.3259891,2.32435023 L15.3280025,2.32283597 Z M18.1043878,2.74784254 C18.0646047,2.75717723 18.0254372,2.76897758 17.9871112,2.78317562 C17.9948456,2.66166441 18.0132038,2.54106884 18.0419744,2.42277813 C18.1043878,2.50959657 18.1637811,2.63275762 18.1043878,2.74784254 L18.1043878,2.74784254 Z"/>
    <path fill="#FF671B" d="M16.2576587,3.11631617 C16.200665,3.15100474 16.139186,3.17767014 16.0749488,3.19556324 C16.0538088,3.1753729 16.0623654,3.13448747 16.0699154,3.10874479 C16.1434021,3.12136375 16.191722,3.08552591 16.258162,3.11631617 L16.258162,3.11631617 L16.2576587,3.11631617 Z"/>
    <path fill="#FFFFFF" d="M18.4189709,3.1996013 C18.4635393,3.26415241 18.4995762,3.33422459 18.5261809,3.40806653 C18.4974367,3.42628615 18.4608019,3.42628615 18.4320576,3.40806653 C18.3850792,3.37271772 18.3427929,3.33149909 18.3062243,3.28541023 L18.3062243,3.10117341 C18.3480009,3.12641134 18.3480009,3.2263535 18.4189709,3.19859179 L18.4189709,3.19859179 L18.4189709,3.1996013 Z"/>
    <path fill="#FF671B" d="M17.2431849,3.2202964 C17.1809707,3.2007263 17.1205223,3.17590432 17.0624882,3.14609691 L17.075575,3.13347795 L17.2643249,3.13852553 L17.2431849,3.2202964 L17.2431849,3.2202964 Z"/>
    <path fill="#FFFFFF" d="M17.1571149,3.57059873 C17.1314449,3.68972172 17.1067817,3.82297793 17.000075,3.89768217 C16.9772928,3.8484936 16.947447,3.80291782 16.9114883,3.76240693 C16.89068,3.83307328 16.8738754,3.90486369 16.8611551,3.97743401 C16.8047663,3.99822009 16.7455121,4.01013854 16.6854918,4.01276709 C16.6698885,3.93604381 16.6351585,3.86739667 16.6351585,3.7856258 L16.6225752,3.77553065 C16.5918718,3.79319718 16.5918718,3.83711116 16.5828119,3.87244426 L16.5093252,3.99308152 C16.4544619,3.97238642 16.3809753,3.98752916 16.351782,3.92594865 C16.3391986,3.86487288 16.375942,3.80682566 16.344232,3.75231176 L16.2435653,3.8391302 C16.1703287,3.7567383 16.1419402,3.6436169 16.1675621,3.53627515 C16.4529519,3.41059032 16.8848117,3.40049515 17.1540949,3.56555114 L17.1540949,3.56555114 L17.1571149,3.57059873 Z M20.7559464,3.71092156 C20.7478932,3.74978796 20.7926898,3.76493072 20.818863,3.77250208 C20.9406697,3.72656907 20.986473,3.83610165 21.025733,3.91282493 L21.025733,3.92392961 C20.8636598,3.88556798 20.6406832,3.8088447 20.4916965,3.91686299 C20.4660266,3.89112032 20.4866632,3.82752076 20.49975,3.78865435 C20.5307051,3.72593295 20.5922557,3.68414412 20.6618231,3.67861702 C20.6990698,3.67861702 20.7403431,3.67356945 20.7564498,3.70839778 L20.7564498,3.70839778 L20.7559464,3.71092156 Z M18.6384242,3.86537764 C18.6082242,3.88607274 18.5775208,3.85023488 18.5443009,3.85275867 C18.4763509,3.84266352 18.3847442,3.88052039 18.3510211,3.79673049 L18.3243443,3.73514998 C18.3753133,3.70935469 18.4333592,3.70119105 18.4894376,3.71193108 C18.54407,3.75790317 18.5945952,3.80857143 18.6404376,3.8633586 L18.6384242,3.86537764 Z M17.8089312,4.19397535 L17.9035578,4.31309834 C17.8336326,4.3299137 17.7600404,4.30863614 17.7097746,4.25707016 C17.609108,4.17529929 17.6025646,4.04456687 17.5844446,3.92695816 C17.6851113,3.98853869 17.8330912,4.04557638 17.8094345,4.19448012 L17.8094345,4.19448012 L17.8089312,4.19397535 Z M15.6863756,4.08949036 C15.7513056,4.18640399 15.8373755,4.27120339 15.8565022,4.38679306 C15.7200989,4.35701232 15.6048357,4.23082272 15.5424224,4.12078539 C15.5269514,4.05895492 15.5206758,3.99517126 15.523799,3.93150099 C15.5892323,3.96128174 15.6909056,4.00317667 15.6863756,4.08999513 L15.6863756,4.08999513 L15.6863756,4.08949036 Z M18.3213243,4.10362361 C18.2352543,4.10816642 18.1038845,4.13138531 18.0439877,4.05011921 C18.0795613,4.01041984 18.125919,3.98200008 18.177371,3.96834834 C18.2297997,4.00843516 18.2780317,4.05375959 18.3213243,4.10362361 Z M16.0819954,4.1096807 L16.0633721,4.32420303 C15.9871153,4.23292908 15.93732,4.12240562 15.9194188,4.00469096 C15.9697521,4.04305259 16.0321654,4.06627148 16.0819954,4.1096807 Z M21.0206997,4.21214666 C20.8696997,4.18892776 20.6985665,4.16621364 20.5863232,4.28129856 C20.5708908,4.28263034 20.5558556,4.28691382 20.5420299,4.29391753 C20.5234039,4.25234162 20.5234039,4.20476098 20.5420299,4.16318509 C20.6155166,4.10362361 20.6985665,3.99207199 20.8057765,4.05314776 C20.8987256,4.06092036 20.9805628,4.11761895 21.0206997,4.20205148 L21.0206997,4.21214666 L21.0206997,4.21214666 Z M17.6669913,4.52661114 L17.6745413,4.54427769 C17.6065914,4.55437286 17.5235413,4.58011553 17.4616314,4.54427769 C17.3569382,4.46250682 17.3775748,4.30906027 17.411298,4.19397535 L17.4555915,4.08949036 C17.5421647,4.22728941 17.4399881,4.46503061 17.6685013,4.52661114 L17.6685013,4.52661114 L17.6669913,4.52661114 Z M19.0546806,4.26817484 C18.9610606,4.30148889 18.8276773,4.29391753 18.7642574,4.22527038 L18.8900908,4.15813751 L19.0546806,4.26817484 Z M15.4165891,4.33480295 C15.3662558,4.42364043 15.2590458,4.45342117 15.2228058,4.54932528 L15.2102225,4.54932528 C15.1996525,4.45998303 15.1397559,4.34994569 15.2650858,4.29341275 C15.3180531,4.29450722 15.3699276,4.3087264 15.4160857,4.33480295 L15.4160857,4.33480295 L15.4165891,4.33480295 Z M17.1571149,4.29391753 C17.1807715,4.39890727 17.1782548,4.51651597 17.2331182,4.61141056 L17.2250649,4.61847716 C17.1490616,4.57759174 17.000075,4.54983003 17.018195,4.43474511 C17.0616345,4.38520918 17.1078479,4.33819073 17.1566115,4.29391753 L17.1566115,4.29391753 L17.1571149,4.29391753 Z M16.4403686,4.59323925 C16.332723,4.53298054 16.258535,4.42659119 16.2390353,4.30451745 L16.4041286,4.35499328 L16.4408719,4.59323925 L16.4403686,4.59323925 Z M21.0836163,4.43928794 C21.151063,4.43171656 21.2008928,4.34742192 21.2768961,4.39638348 C21.3642739,4.44080577 21.426977,4.52242062 21.4475261,4.61847716 C21.2866271,4.54448389 21.1147276,4.49742296 20.9386564,4.47916386 C20.8445331,4.48925901 20.7765831,4.57153464 20.6794398,4.57607747 C20.6464839,4.60700453 20.6085299,4.63209439 20.5671965,4.65027695 C20.5168633,4.60686773 20.5329698,4.52762067 20.5304532,4.45846876 C20.6009199,4.45846876 20.6522599,4.40496437 20.7111498,4.37922168 C20.8470498,4.45089738 21.0357997,4.20306101 21.0695231,4.42969753 L21.0831129,4.44282125 L21.0836163,4.43928794 Z M16.6995851,4.68106722 C16.6789604,4.61688328 16.6639712,4.55101388 16.6547885,4.48421143 C16.7208231,4.44968557 16.7786742,4.40131115 16.8244118,4.34237433 C16.8218951,4.45745923 16.8198818,4.61595339 16.6990818,4.67955293 L16.6990818,4.67955293 L16.6995851,4.68106722 Z M18.8352274,4.52963969 C18.6993275,4.59828684 18.5553742,4.51651597 18.432561,4.46805916 C18.4066192,4.4550329 18.3861134,4.43321739 18.3746777,4.40647865 C18.4426275,4.40900243 18.5135976,4.30552696 18.5709775,4.39385969 C18.6681208,4.41707856 18.7491574,4.49481136 18.8352274,4.52913493 L18.8352274,4.52913493 L18.8352274,4.52963969 Z M19.9823236,4.51348742 C20.0895334,4.57002036 20.0764469,4.67702914 20.0764469,4.7769713 C19.9329968,4.6618864 19.8096803,4.50339226 19.6999536,4.37316459 C19.8152169,4.36761224 19.8731002,4.5003637 19.9828269,4.51348742 L19.9828269,4.51348742 L19.9823236,4.51348742 Z M18.270991,4.698229 L18.3968243,4.81735199 C18.2085777,4.88145629 18.0641212,4.72296215 17.9569112,4.60232489 C18.0147945,4.55689665 18.0928111,4.56396326 18.1637811,4.54629673 L18.270991,4.69772424 L18.270991,4.69772424 L18.270991,4.698229 Z M15.6732889,4.60030587 C15.6576856,4.71942885 15.5514824,4.82239956 15.4664191,4.90013235 C15.4503124,4.81079012 15.492089,4.71034321 15.505679,4.61847716 C15.5515688,4.57620576 15.6196381,4.56903107 15.6732889,4.60081063 L15.6732889,4.60081063 L15.6732889,4.60030587 Z M19.2801738,4.75375243 C19.2645705,4.78706647 19.2494705,4.8547041 19.2122238,4.84561845 C19.1175973,4.77949509 19.1493072,4.67198156 19.1618906,4.58011553 C19.2283909,4.61450605 19.2738902,4.67936589 19.2836971,4.75375243 L19.2836971,4.75375243 L19.2801738,4.75375243 Z M19.7070002,4.74113346 C19.717067,4.84561845 19.8610202,4.81280916 19.8821601,4.91729415 C19.902797,4.97887468 19.9581634,5.02985527 19.9581634,5.0914358 C19.9294735,5.12474985 19.8610202,5.11717847 19.863537,5.17573045 C19.9178221,5.20141275 19.9653881,5.23943499 20.0024569,5.28677729 C19.9995693,5.40267126 19.987281,5.51813734 19.9657135,5.63203204 C19.9355135,5.63758438 19.9264536,5.6022513 19.9214203,5.5815562 C19.8907169,5.28273923 19.7387103,5.0318743 19.6254603,4.7638476 L19.4815072,4.63614371 C19.5650604,4.64623889 19.677807,4.65128647 19.7064969,4.74062871 L19.7064969,4.74062871 L19.7070002,4.74113346 Z M21.2532395,4.73154306 L21.4208495,4.82391384 L21.4656461,4.98997936 C21.3710194,5.0404552 21.2874662,4.94404635 21.1958596,4.92335125 C21.1455262,4.8935705 21.2220328,4.8183615 21.151063,4.80574253 C21.0503964,4.80826633 20.9809364,4.87489444 20.8772497,4.86227547 C20.8675233,4.86678754 20.8585302,4.87274322 20.8505731,4.87994203 C20.8405065,4.90568469 20.8792631,4.90972277 20.8772497,4.93647497 C20.8046883,4.98479487 20.714285,4.9977727 20.6311199,4.97180805 C20.5999409,4.92545683 20.5868619,4.86921983 20.5943766,4.81381867 C20.6522599,4.77545704 20.7488998,4.79312357 20.8012464,4.72700023 C20.9426831,4.67652439 21.0579463,4.76536186 21.1913296,4.76990469 L21.2547495,4.73154306 L21.2547495,4.73154306 L21.2532395,4.73154306 Z M17.9030545,4.8996276 C17.9689912,4.94556061 18.0419744,4.9713033 18.1043878,5.01875059 C17.9000345,5.12323557 17.690648,4.97281756 17.5341114,4.8521803 C17.6096114,4.82391384 17.7117879,4.83451377 17.7903079,4.79615213 C17.8532246,4.788076 17.8663112,4.86530402 17.9030545,4.90063713 L17.9030545,4.90063713 L17.9030545,4.8996276 Z M15.8932455,4.81533295 C15.8796721,4.90716831 15.8549948,4.99700382 15.8197589,5.08285489 C15.7518089,5.16008293 15.609869,5.1424164 15.523799,5.12676889 C15.6602023,5.06014077 15.7568422,4.93243689 15.8303289,4.80725682 C15.8505551,4.81330932 15.8716602,4.81586958 15.8927422,4.8148282 L15.8927422,4.8148282 L15.8932455,4.81533295 Z M19.5378805,5.08487393 C19.5615371,5.14140687 19.5076804,5.17421616 19.4699304,5.19491126 L19.4513071,5.2029874 C19.3571838,5.10203573 19.3647337,4.96019861 19.3939271,4.83501852 C19.5242904,4.85268507 19.4487905,5.01875059 19.5378805,5.08739772 L19.5378805,5.08739772 L19.5378805,5.08487393 Z M17.2431849,4.91224656 C17.3010682,4.98392226 17.3941849,5.06115028 17.4631414,5.13232123 C17.4032085,5.17501924 17.3282473,5.19074898 17.2562715,5.17573045 C17.1309416,5.12979743 17.1178549,4.9713033 16.9920217,4.92335125 C16.9839683,4.89811333 16.9582984,4.87741823 16.9683649,4.84410417 L17.2426816,4.91022753 L17.2426816,4.91022753 L17.2431849,4.91224656 Z M16.3905386,4.87691348 C16.3677346,4.97009056 16.3095897,5.05067366 16.2284653,5.10153096 C16.1370745,5.14170798 16.0361799,5.15501195 15.9375388,5.13989261 C16.0382054,5.04853134 16.1650454,4.97887468 16.259672,4.87691348 L16.3905386,4.87691348 Z M16.4036253,5.35441493 L16.3029586,5.38419567 C16.3739286,5.2746631 16.4967419,5.18733988 16.5360019,5.05913126 C16.5933818,5.01824582 16.6829751,5.03389333 16.7423684,5.02076961 C16.6996613,5.18549157 16.5700765,5.31330976 16.4051353,5.3534054 L16.4051353,5.3534054 L16.4036253,5.35441493 Z M21.1822695,5.16311148 C21.2697844,5.20674669 21.3202479,5.30107672 21.3081029,5.3983289 L21.1399896,5.31151046 C21.1452572,5.29645449 21.1442805,5.27990862 21.1372787,5.26558091 C21.1302771,5.25125319 21.1178357,5.24034175 21.1027429,5.23529194 C21.0968913,5.23329309 21.0907951,5.23210435 21.0846229,5.23175863 C20.9833793,5.20890595 20.8774888,5.219348 20.7826232,5.26153938 C20.7252432,5.24084428 20.7121565,5.1691686 20.6935332,5.12071177 C20.8082931,5.09244531 20.9421797,5.03641713 21.0760663,5.0767978 C21.1274527,5.07563715 21.1724302,5.11121286 21.1832762,5.16159722 L21.1832762,5.16159722 L21.1822695,5.16311148 Z M20.2339901,5.17421616 C20.26419,5.25851083 20.2259366,5.36854816 20.2209034,5.44527143 C20.1709614,5.33339605 20.1139696,5.22482176 20.0502734,5.12020702 C20.0789121,5.09351578 20.1194637,5.08394768 20.1569653,5.09503322 C20.1944671,5.10611875 20.2233601,5.1362147 20.2329834,5.17421616 L20.2329834,5.17421616 L20.2339901,5.17421616 Z M19.3063471,5.33725313 C19.3612104,5.43164295 19.2383972,5.54571836 19.3924171,5.58256571 C19.402987,5.6835174 19.3561771,5.77437391 19.3375538,5.86926849 C19.3260241,5.77790574 19.2913689,5.69102257 19.2368872,5.61688929 C19.2550072,5.58407999 19.2836971,5.55076594 19.2449405,5.51997567 C19.2061839,5.48918542 19.1533338,5.49019493 19.1503139,5.43315723 C19.1266573,5.343815 19.2187672,5.30040576 19.2449405,5.23125388 C19.2952739,5.23630146 19.2897373,5.29737722 19.3073538,5.33573887 L19.3063471,5.33725313 Z M19.7251203,5.48868066 C19.7512937,5.56540393 19.7754536,5.66484134 19.738207,5.74408841 C19.7610665,5.76785613 19.7948877,5.77749163 19.8267936,5.76932633 C19.8267936,5.84907816 19.756327,5.93337281 19.714047,6.01009609 L19.683847,6.04593393 C19.6893836,5.95911549 19.7311604,5.84907816 19.6531437,5.78749763 C19.6269703,5.78749763 19.5982804,5.79002143 19.5907303,5.76427874 C19.5882137,5.64566052 19.6299903,5.53966125 19.5403971,5.45031901 C19.532847,5.34936734 19.6501236,5.33725313 19.7054903,5.27870115 C19.7417303,5.329177 19.7130404,5.42205255 19.7286436,5.48817589 L19.7286436,5.48817589 L19.7251203,5.48868066 Z M15.6732889,5.50129961 C15.7385196,5.53389584 15.7998208,5.57386294 15.8559989,5.62042261 C15.843056,5.64802695 15.8547428,5.68093285 15.8821722,5.69411732 C15.9357223,5.71459171 15.9751826,5.76101278 15.9868655,5.81727838 L15.9868655,5.98889623 C15.9400555,5.90157302 15.8746222,5.76882157 15.7568422,5.74863123 C15.6889289,5.70896478 15.6321337,5.65270333 15.591749,5.5850895 C15.4638446,5.5361238 15.3237587,5.52905549 15.1915992,5.56489918 C15.1674392,5.51442333 15.2384092,5.47252838 15.2721325,5.42407157 L15.3088758,5.38066235 C15.4271591,5.4311382 15.602319,5.37309097 15.6742956,5.50331865 L15.6742956,5.50331865 L15.6732889,5.50129961 Z M21.0519064,5.48211879 C21.120175,5.47761237 21.1866882,5.50500097 21.2320996,5.55631829 C21.2270663,5.6229464 21.2215295,5.71228863 21.2139796,5.77639295 C21.1379763,5.67544126 21.040833,5.56187063 20.8998998,5.55631829 C20.8314464,5.56641344 20.7896698,5.62799397 20.7247397,5.64364148 C20.7856432,5.56691821 20.7161831,5.37813856 20.8812765,5.40337649 C20.9728829,5.37511001 20.9703663,5.48716638 21.0519064,5.48211879 L21.0519064,5.48211879 Z M17.2748948,5.66635562 C17.2411716,5.68402215 17.1938582,5.66181279 17.1576182,5.64868907 C17.0885974,5.62278338 17.0434,5.55600939 17.0448716,5.48211879 C17.0866482,5.46949983 17.1389949,5.48514734 17.1807715,5.46949983 L17.2753981,5.66635562 L17.2753981,5.66635562 L17.2748948,5.66635562 Z M18.1980078,5.53915649 C18.289111,5.56691821 18.4073942,5.56893723 18.4496743,5.67443175 L18.4939676,5.78446908 C18.3429676,5.84049727 18.2976677,5.57448958 18.1612645,5.70522201 C18.0490212,5.66686037 17.9231878,5.63102253 17.8210113,5.71531718 C17.7923212,5.73045994 17.760108,5.75923115 17.726888,5.74055509 C17.723868,5.67695555 17.7923212,5.62849874 17.834098,5.57448958 C17.9750312,5.62799397 18.0696578,5.36602437 18.1995178,5.53865174 L18.1995178,5.53865174 L18.1980078,5.53915649 Z M16.7227384,5.57398482 C16.7442123,5.61653877 16.7589841,5.66217144 16.7665284,5.70926008 C16.7048266,5.74310055 16.6318199,5.74950674 16.5651952,5.72692662 L16.4529519,5.58963233 C16.5284519,5.58458475 16.6437151,5.60527985 16.7222351,5.5719658 L16.7222351,5.5719658 L16.7227384,5.57398482 Z M15.7311723,5.99899141 C15.7211056,6.11760963 15.8861989,6.07268613 15.8882122,6.1882758 C15.9536455,6.29276079 15.8273089,6.35434132 15.7940889,6.42854081 C15.7437556,6.37806496 15.7759689,6.27711328 15.7130523,6.23673261 C15.7075156,6.19837097 15.7835189,6.16253311 15.7362056,6.11407631 C15.6969456,6.08429556 15.6395656,6.09590502 15.5922523,6.08429556 C15.4744724,6.02826738 15.3727991,5.93286805 15.2600525,5.85160195 C15.1890825,5.83898299 15.1211326,5.87229703 15.0587193,5.89501117 L15.0224793,5.84453533 C15.0848926,5.79405948 15.0929459,5.70370774 15.1790159,5.6835174 C15.4226291,5.67342223 15.5217857,5.92378241 15.7326823,5.99798188 L15.7326823,5.99798188 L15.7311723,5.99899141 Z M21.0896564,5.86876373 C21.1938462,5.94245845 21.1555929,6.08076226 21.1289163,6.17515208 C21.0798907,6.15153245 21.034743,6.12055446 20.9950297,6.08328605 C20.9950297,6.06006716 21.0035863,6.01665794 20.9824464,5.99091527 C20.8983898,5.90662061 20.7624897,5.97577251 20.6572932,5.95507742 C20.6286031,5.89904923 20.6784331,5.8606876 20.7076265,5.81980217 C20.7705431,5.79910707 20.8329564,5.75822164 20.9089597,5.78396431 C20.9723796,5.80415466 21.0191897,5.86876373 21.0896564,5.86876373 L21.0896564,5.86876373 L21.0896564,5.86876373 Z M17.9543945,5.82838306 C17.9553149,5.8380106 17.9629142,5.84563134 17.9725145,5.84655437 C18.1899544,5.84655437 18.409911,5.8642209 18.5432943,6.03583876 L18.5432943,6.12568576 C18.4622575,6.07924798 18.3656176,6.07218137 18.2916276,6.00302947 C18.1451578,5.96466783 18.0273779,5.99798188 17.8834245,6.02069602 C17.8753713,5.99293429 17.8622845,5.95457266 17.8205079,5.98031535 C17.7198414,6.01009609 17.616658,6.03381974 17.5326014,6.10246687 C17.5326014,6.04088634 17.5748814,5.98031535 17.5950147,5.91873482 C17.7086997,5.86852682 17.830039,5.83797809 17.9538912,5.82838306 L17.9543945,5.82838306 Z M18.934384,6.37957923 C18.9327597,6.41387822 18.9266679,6.44781673 18.916264,6.48053092 C18.9006607,6.41188377 18.7592241,6.35787462 18.8402607,6.26600859 C18.8427774,6.11458108 18.7567075,5.97930582 18.7330507,5.82585927 C18.9741473,5.92378241 18.9031773,6.17919015 18.934384,6.37856972 L18.934384,6.37856972 L18.934384,6.37957923 Z M21.6488594,5.97324872 C21.6569126,6.04997201 21.6619459,6.15748554 21.6186593,6.22562792 C21.581916,6.18726629 21.5008794,6.12467624 21.5114495,6.05905765 C21.5320861,6.01564843 21.5869495,5.83444016 21.649866,5.97223921 L21.649866,5.97223921 L21.6488594,5.97324872 Z M15.2228058,6.07823847 C15.2489792,6.17919015 15.4296757,6.12871431 15.4035024,6.26197052 C15.3959524,6.290237 15.3733024,6.31244636 15.3798458,6.34878897 C15.4377291,6.38210302 15.5212824,6.35434132 15.573629,6.40279812 C15.6677523,6.50374981 15.609869,6.62489182 15.573629,6.73492916 C15.4820224,6.59410155 15.495109,6.37200785 15.2857225,6.29780838 C15.1674392,6.25944674 15.0602293,6.16707594 14.9333893,6.19685669 C14.9203027,6.13325714 14.975166,6.07823847 15.0219759,6.03583876 C15.1030126,6.01514368 15.1397559,6.09994308 15.2233092,6.07924798 L15.2233092,6.07924798 L15.2228058,6.07823847 Z M20.7740664,6.11357155 C20.8133264,6.15748554 20.7192031,6.2185613 20.8047698,6.23269455 C20.8752363,6.22259937 20.9225497,6.28872271 20.9557698,6.33717952 C20.9631076,6.35683268 20.9650205,6.37810758 20.9613064,6.39876005 L20.9426831,6.4164266 L20.6739032,6.30437023 C20.6925265,6.24783729 20.6482333,6.21704703 20.6034365,6.19938048 C20.5410232,6.1943329 20.4932065,6.27105618 20.4358265,6.24329447 C20.5062932,6.18928531 20.5485732,6.03079117 20.6608165,6.07672418 C20.6927606,6.10173291 20.7325777,6.11444598 20.7730598,6.11256204 L20.7730598,6.11256204 L20.7740664,6.11357155 Z M18.5226575,6.26197052 C18.6535241,6.30537976 18.5594008,6.49214035 18.7114074,6.48961656 L18.7295274,6.5123307 C18.7127653,6.58170522 18.6917533,6.64997714 18.6666108,6.71675785 C18.6198009,6.62489182 18.5880909,6.49415939 18.4652775,6.46437865 C18.4365876,6.41844564 18.4255142,6.35181752 18.370651,6.31295112 C18.3132711,6.30790355 18.2488443,6.28317037 18.195491,6.29982741 C18.2261944,6.36140794 18.3172977,6.40481716 18.281561,6.48406422 C18.3318944,6.53050199 18.4154476,6.54816854 18.4386009,6.61984424 L18.4386009,6.78086217 L18.3243443,6.85152834 C18.3117609,6.73593867 18.3399477,6.58552066 18.2171345,6.5219211 C18.0731811,6.52999723 18.0756978,6.35837937 17.9654678,6.30689402 C17.8688278,6.35736986 17.740478,6.33263671 17.6413212,6.37352213 C17.6594412,6.32001774 17.6619581,6.24329447 17.7354445,6.22764696 C17.8320845,6.1615236 17.9760378,6.20745662 18.0731811,6.1408285 C18.2377711,6.1433523 18.3716577,6.22259937 18.5206442,6.2634848 L18.5206442,6.2634848 L18.5226575,6.26197052 Z M21.4923228,6.3412176 C21.4923228,6.38210302 21.4616194,6.40734095 21.4742028,6.45125493 C21.5391327,6.47901663 21.5315828,6.54059716 21.4923228,6.58198736 L21.4742028,6.59965389 C21.4434994,6.49870222 21.3584362,6.42551224 21.3035729,6.33617001 L21.3669928,6.20089476 C21.4215853,6.23455815 21.4651542,6.28351466 21.4923228,6.34172235 L21.4923228,6.34172235 L21.4923228,6.3412176 Z M14.4169696,6.35383656 C14.3701596,6.39219819 14.3802263,6.45125493 14.3616029,6.50526407 C14.3923062,6.5461495 14.4532096,6.52040683 14.4743495,6.57138743 C14.4849195,6.65820587 14.4929729,6.77329079 14.4169696,6.82376663 C14.3925538,6.75267835 14.3368572,6.696824 14.2659696,6.6723391 C14.1793964,6.78490023 14.1949997,6.94844195 14.203053,7.09128858 C14.1651954,7.12484462 14.1230478,7.1531923 14.0777231,7.17558324 C13.9830965,6.8969566 14.0671531,6.59511108 14.239293,6.37806496 C14.2971763,6.37352213 14.3575763,6.365446 14.4154596,6.36039841 L14.4154596,6.36039841 L14.4169696,6.35383656 Z M15.0033526,6.42803604 C14.9837875,6.45742133 14.9624394,6.48557266 14.9394293,6.5123307 C15.005366,6.55069233 15.0904292,6.60974907 15.1150926,6.6869771 C15.1276759,6.85758544 14.9973126,6.97822269 14.895136,7.09583141 C14.873996,6.97670843 14.925336,6.87070916 14.9499993,6.75814803 C14.877016,6.76571941 14.7798727,6.63549175 14.7365861,6.75814803 C14.6973261,6.90402322 14.5428028,7.00598442 14.5166295,7.15690718 L14.5035429,7.13873587 C14.4884291,6.92947893 14.5305441,6.72005295 14.6253495,6.53302578 C14.7224928,6.43207411 14.8714794,6.3593889 15.002346,6.42854081 L15.002346,6.42854081 L15.0033526,6.42803604 Z"/>
    <path fill="#FFFFFF" d="M17.9478511,6.53353055 C17.9554012,6.55119709 17.9528846,6.58703495 17.9871112,6.58703495 C18.0681478,6.55725418 18.0918044,6.63296796 18.1043878,6.68798662 C18.1251592,6.74550772 18.0978556,6.80932288 18.0419744,6.83386179 C17.9871112,6.74451956 18.0183178,6.55523516 17.8481912,6.57593025 C17.8144697,6.5522643 17.7829652,6.52557029 17.7540679,6.49617843 C17.8149713,6.46639769 17.9161412,6.44267404 17.9478511,6.53504482 L17.9478511,6.53353055 Z"/>
    <path fill="#FF671B" d="M16.7609918,6.83234752 C16.7846485,6.98074649 16.8057884,7.146812 16.886825,7.27855395 L16.6668685,7.27855395 C16.6406952,7.13520257 16.4841586,7.02617475 16.5334852,6.86919489 C16.5908652,6.82578565 16.6844851,6.82376663 16.7086451,6.73947197 C16.7007591,6.71608337 16.6835733,6.69701004 16.6611668,6.68677906 C16.6387604,6.67654808 16.613131,6.67607164 16.5903618,6.68546282 C16.5860699,6.69092554 16.5788454,6.69313928 16.5722418,6.69101516 C16.5485852,6.53958765 16.7232418,6.56835888 16.8027685,6.51939731 C16.794715,6.61075858 16.7660251,6.72382446 16.7604884,6.83083324 L16.7604884,6.83083324 L16.7609918,6.83234752 Z"/>
    <path fill="#FFFFFF" d="M14.0032298,6.83234752 C13.9614531,6.83739511 13.9247098,6.79095732 13.8778998,6.7889383 C13.8018965,6.91159458 13.8935032,7.05242219 13.8411565,7.18264985 C13.7940806,7.17189798 13.7529659,7.14332549 13.7263966,7.10289803 C13.7102821,6.980943 13.7102821,6.85738894 13.7263966,6.73543391 L13.8909865,6.56381605 C13.9916531,6.6142919 14.0168198,6.73038632 14.0037331,6.83133801 L14.0037331,6.83133801 L14.0032298,6.83234752 Z"/>
    <path fill="#FF671B" d="M20.0024569,6.61732044 C19.8806502,6.80912863 19.9657135,7.06756493 19.9762834,7.27956346 L19.8197469,7.28763959 C19.7438872,7.16501048 19.7005698,7.02495932 19.6939137,6.88080433 C19.7019351,6.84611825 19.7193532,6.8143276 19.7442469,6.7889383 C19.7835069,6.82477614 19.7860235,6.89645184 19.8449136,6.91916596 C19.8945544,6.85256517 19.9082976,6.76571773 19.8816568,6.6869771 L19.8393769,6.64356789 C19.8972602,6.64356789 19.9440702,6.6178252 20.0019535,6.6178252 L20.0019535,6.6178252 L20.0024569,6.61732044 Z M17.2014081,6.81417622 L17.1807715,7.28562057 L17.0237316,7.27855395 C16.9895049,7.12207885 16.9371584,6.95601333 16.9502449,6.7949954 L17.0237316,6.68495807 L17.1938582,6.81770952 L17.2014081,6.81266195 L17.2014081,6.81266195 L17.2014081,6.81417622 Z M17.5708547,6.75057665 C17.6126313,6.78641451 17.597028,6.86061398 17.5839413,6.90200418 L17.4621347,7.27502064 L17.3045915,7.27502064 L17.3675081,6.81518573 C17.3982115,6.78540498 17.4118014,6.72836729 17.4565981,6.71776736 C17.4966056,6.71271142 17.5370117,6.72338418 17.5693447,6.7475481 L17.5693447,6.7475481 L17.5708547,6.75057665 Z"/>
  </g>
</svg>
